<?xml version="1.0" encoding="utf-8" standalone="no"?>
<!DOCTYPE svg PUBLIC "-//W3C//DTD SVG 1.1//EN"
  "http://www.w3.org/Graphics/SVG/1.1/DTD/svg11.dtd">
<!-- Created with matplotlib (https://matplotlib.org/) -->
<svg height="345.6pt" version="1.1" viewBox="0 0 460.8 345.6" width="460.8pt" xmlns="http://www.w3.org/2000/svg" xmlns:xlink="http://www.w3.org/1999/xlink">
 <metadata>
  <rdf:RDF xmlns:cc="http://creativecommons.org/ns#" xmlns:dc="http://purl.org/dc/elements/1.1/" xmlns:rdf="http://www.w3.org/1999/02/22-rdf-syntax-ns#">
   <cc:Work>
    <dc:type rdf:resource="http://purl.org/dc/dcmitype/StillImage"/>
    <dc:date>2021-06-10T23:02:54.903779</dc:date>
    <dc:format>image/svg+xml</dc:format>
    <dc:creator>
     <cc:Agent>
      <dc:title>Matplotlib v3.3.1, https://matplotlib.org/</dc:title>
     </cc:Agent>
    </dc:creator>
   </cc:Work>
  </rdf:RDF>
 </metadata>
 <defs>
  <style type="text/css">*{stroke-linecap:butt;stroke-linejoin:round;}</style>
 </defs>
 <g id="figure_1">
  <g id="patch_1">
   <path d="M 0 345.6 
L 460.8 345.6 
L 460.8 0 
L 0 0 
z
" style="fill:#ffffff;"/>
  </g>
  <g id="axes_1">
   <g id="patch_2">
    <path d="M 57.6 307.584 
L 414.72 307.584 
L 414.72 41.472 
L 57.6 41.472 
z
" style="fill:#ffffff;"/>
   </g>
   <g id="matplotlib.axis_1">
    <g id="xtick_1">
     <g id="line2d_1">
      <defs>
       <path d="M 0 0 
L 0 3.5 
" id="m45a2e27dd9" style="stroke:#000000;stroke-width:0.8;"/>
      </defs>
      <g>
       <use style="stroke:#000000;stroke-width:0.8;" x="90.424496" xlink:href="#m45a2e27dd9" y="307.584"/>
      </g>
     </g>
     <g id="text_1">
      <!-- $\mathdefault{10^{2}}$ -->
      <g transform="translate(81.624496 322.182437)scale(0.1 -0.1)">
       <defs>
        <path d="M 12.40625 8.296875 
L 28.515625 8.296875 
L 28.515625 63.921875 
L 10.984375 60.40625 
L 10.984375 69.390625 
L 28.421875 72.90625 
L 38.28125 72.90625 
L 38.28125 8.296875 
L 54.390625 8.296875 
L 54.390625 0 
L 12.40625 0 
z
" id="DejaVuSans-49"/>
        <path d="M 31.78125 66.40625 
Q 24.171875 66.40625 20.328125 58.90625 
Q 16.5 51.421875 16.5 36.375 
Q 16.5 21.390625 20.328125 13.890625 
Q 24.171875 6.390625 31.78125 6.390625 
Q 39.453125 6.390625 43.28125 13.890625 
Q 47.125 21.390625 47.125 36.375 
Q 47.125 51.421875 43.28125 58.90625 
Q 39.453125 66.40625 31.78125 66.40625 
z
M 31.78125 74.21875 
Q 44.046875 74.21875 50.515625 64.515625 
Q 56.984375 54.828125 56.984375 36.375 
Q 56.984375 17.96875 50.515625 8.265625 
Q 44.046875 -1.421875 31.78125 -1.421875 
Q 19.53125 -1.421875 13.0625 8.265625 
Q 6.59375 17.96875 6.59375 36.375 
Q 6.59375 54.828125 13.0625 64.515625 
Q 19.53125 74.21875 31.78125 74.21875 
z
" id="DejaVuSans-48"/>
        <path d="M 19.1875 8.296875 
L 53.609375 8.296875 
L 53.609375 0 
L 7.328125 0 
L 7.328125 8.296875 
Q 12.9375 14.109375 22.625 23.890625 
Q 32.328125 33.6875 34.8125 36.53125 
Q 39.546875 41.84375 41.421875 45.53125 
Q 43.3125 49.21875 43.3125 52.78125 
Q 43.3125 58.59375 39.234375 62.25 
Q 35.15625 65.921875 28.609375 65.921875 
Q 23.96875 65.921875 18.8125 64.3125 
Q 13.671875 62.703125 7.8125 59.421875 
L 7.8125 69.390625 
Q 13.765625 71.78125 18.9375 73 
Q 24.125 74.21875 28.421875 74.21875 
Q 39.75 74.21875 46.484375 68.546875 
Q 53.21875 62.890625 53.21875 53.421875 
Q 53.21875 48.921875 51.53125 44.890625 
Q 49.859375 40.875 45.40625 35.40625 
Q 44.1875 33.984375 37.640625 27.21875 
Q 31.109375 20.453125 19.1875 8.296875 
z
" id="DejaVuSans-50"/>
       </defs>
       <use transform="translate(0 0.765625)" xlink:href="#DejaVuSans-49"/>
       <use transform="translate(63.623047 0.765625)" xlink:href="#DejaVuSans-48"/>
       <use transform="translate(128.203125 39.046875)scale(0.7)" xlink:href="#DejaVuSans-50"/>
      </g>
     </g>
    </g>
    <g id="xtick_2">
     <g id="line2d_2">
      <g>
       <use style="stroke:#000000;stroke-width:0.8;" x="301.164687" xlink:href="#m45a2e27dd9" y="307.584"/>
      </g>
     </g>
     <g id="text_2">
      <!-- $\mathdefault{10^{3}}$ -->
      <g transform="translate(292.364687 322.182437)scale(0.1 -0.1)">
       <defs>
        <path d="M 40.578125 39.3125 
Q 47.65625 37.796875 51.625 33 
Q 55.609375 28.21875 55.609375 21.1875 
Q 55.609375 10.40625 48.1875 4.484375 
Q 40.765625 -1.421875 27.09375 -1.421875 
Q 22.515625 -1.421875 17.65625 -0.515625 
Q 12.796875 0.390625 7.625 2.203125 
L 7.625 11.71875 
Q 11.71875 9.328125 16.59375 8.109375 
Q 21.484375 6.890625 26.8125 6.890625 
Q 36.078125 6.890625 40.9375 10.546875 
Q 45.796875 14.203125 45.796875 21.1875 
Q 45.796875 27.640625 41.28125 31.265625 
Q 36.765625 34.90625 28.71875 34.90625 
L 20.21875 34.90625 
L 20.21875 43.015625 
L 29.109375 43.015625 
Q 36.375 43.015625 40.234375 45.921875 
Q 44.09375 48.828125 44.09375 54.296875 
Q 44.09375 59.90625 40.109375 62.90625 
Q 36.140625 65.921875 28.71875 65.921875 
Q 24.65625 65.921875 20.015625 65.03125 
Q 15.375 64.15625 9.8125 62.3125 
L 9.8125 71.09375 
Q 15.4375 72.65625 20.34375 73.4375 
Q 25.25 74.21875 29.59375 74.21875 
Q 40.828125 74.21875 47.359375 69.109375 
Q 53.90625 64.015625 53.90625 55.328125 
Q 53.90625 49.265625 50.4375 45.09375 
Q 46.96875 40.921875 40.578125 39.3125 
z
" id="DejaVuSans-51"/>
       </defs>
       <use transform="translate(0 0.765625)" xlink:href="#DejaVuSans-49"/>
       <use transform="translate(63.623047 0.765625)" xlink:href="#DejaVuSans-48"/>
       <use transform="translate(128.203125 39.046875)scale(0.7)" xlink:href="#DejaVuSans-51"/>
      </g>
     </g>
    </g>
    <g id="xtick_3">
     <g id="line2d_3">
      <defs>
       <path d="M 0 0 
L 0 2 
" id="md32d6f2143" style="stroke:#000000;stroke-width:0.6;"/>
      </defs>
      <g>
       <use style="stroke:#000000;stroke-width:0.6;" x="57.780427" xlink:href="#md32d6f2143" y="307.584"/>
      </g>
     </g>
    </g>
    <g id="xtick_4">
     <g id="line2d_4">
      <g>
       <use style="stroke:#000000;stroke-width:0.6;" x="70.001661" xlink:href="#md32d6f2143" y="307.584"/>
      </g>
     </g>
    </g>
    <g id="xtick_5">
     <g id="line2d_5">
      <g>
       <use style="stroke:#000000;stroke-width:0.6;" x="80.781554" xlink:href="#md32d6f2143" y="307.584"/>
      </g>
     </g>
    </g>
    <g id="xtick_6">
     <g id="line2d_6">
      <g>
       <use style="stroke:#000000;stroke-width:0.6;" x="153.863615" xlink:href="#md32d6f2143" y="307.584"/>
      </g>
     </g>
    </g>
    <g id="xtick_7">
     <g id="line2d_7">
      <g>
       <use style="stroke:#000000;stroke-width:0.6;" x="190.97312" xlink:href="#md32d6f2143" y="307.584"/>
      </g>
     </g>
    </g>
    <g id="xtick_8">
     <g id="line2d_8">
      <g>
       <use style="stroke:#000000;stroke-width:0.6;" x="217.302734" xlink:href="#md32d6f2143" y="307.584"/>
      </g>
     </g>
    </g>
    <g id="xtick_9">
     <g id="line2d_9">
      <g>
       <use style="stroke:#000000;stroke-width:0.6;" x="237.725568" xlink:href="#md32d6f2143" y="307.584"/>
      </g>
     </g>
    </g>
    <g id="xtick_10">
     <g id="line2d_10">
      <g>
       <use style="stroke:#000000;stroke-width:0.6;" x="254.412239" xlink:href="#md32d6f2143" y="307.584"/>
      </g>
     </g>
    </g>
    <g id="xtick_11">
     <g id="line2d_11">
      <g>
       <use style="stroke:#000000;stroke-width:0.6;" x="268.520619" xlink:href="#md32d6f2143" y="307.584"/>
      </g>
     </g>
    </g>
    <g id="xtick_12">
     <g id="line2d_12">
      <g>
       <use style="stroke:#000000;stroke-width:0.6;" x="280.741853" xlink:href="#md32d6f2143" y="307.584"/>
      </g>
     </g>
    </g>
    <g id="xtick_13">
     <g id="line2d_13">
      <g>
       <use style="stroke:#000000;stroke-width:0.6;" x="291.521745" xlink:href="#md32d6f2143" y="307.584"/>
      </g>
     </g>
    </g>
    <g id="xtick_14">
     <g id="line2d_14">
      <g>
       <use style="stroke:#000000;stroke-width:0.6;" x="364.603806" xlink:href="#md32d6f2143" y="307.584"/>
      </g>
     </g>
    </g>
    <g id="xtick_15">
     <g id="line2d_15">
      <g>
       <use style="stroke:#000000;stroke-width:0.6;" x="401.713312" xlink:href="#md32d6f2143" y="307.584"/>
      </g>
     </g>
    </g>
    <g id="text_3">
     <!-- Execution time (s) -->
     <g transform="translate(190.645156 335.860562)scale(0.1 -0.1)">
      <defs>
       <path d="M 9.8125 72.90625 
L 55.90625 72.90625 
L 55.90625 64.59375 
L 19.671875 64.59375 
L 19.671875 43.015625 
L 54.390625 43.015625 
L 54.390625 34.71875 
L 19.671875 34.71875 
L 19.671875 8.296875 
L 56.78125 8.296875 
L 56.78125 0 
L 9.8125 0 
z
" id="DejaVuSans-69"/>
       <path d="M 54.890625 54.6875 
L 35.109375 28.078125 
L 55.90625 0 
L 45.3125 0 
L 29.390625 21.484375 
L 13.484375 0 
L 2.875 0 
L 24.125 28.609375 
L 4.6875 54.6875 
L 15.28125 54.6875 
L 29.78125 35.203125 
L 44.28125 54.6875 
z
" id="DejaVuSans-120"/>
       <path d="M 56.203125 29.59375 
L 56.203125 25.203125 
L 14.890625 25.203125 
Q 15.484375 15.921875 20.484375 11.0625 
Q 25.484375 6.203125 34.421875 6.203125 
Q 39.59375 6.203125 44.453125 7.46875 
Q 49.3125 8.734375 54.109375 11.28125 
L 54.109375 2.78125 
Q 49.265625 0.734375 44.1875 -0.34375 
Q 39.109375 -1.421875 33.890625 -1.421875 
Q 20.796875 -1.421875 13.15625 6.1875 
Q 5.515625 13.8125 5.515625 26.8125 
Q 5.515625 40.234375 12.765625 48.109375 
Q 20.015625 56 32.328125 56 
Q 43.359375 56 49.78125 48.890625 
Q 56.203125 41.796875 56.203125 29.59375 
z
M 47.21875 32.234375 
Q 47.125 39.59375 43.09375 43.984375 
Q 39.0625 48.390625 32.421875 48.390625 
Q 24.90625 48.390625 20.390625 44.140625 
Q 15.875 39.890625 15.1875 32.171875 
z
" id="DejaVuSans-101"/>
       <path d="M 48.78125 52.59375 
L 48.78125 44.1875 
Q 44.96875 46.296875 41.140625 47.34375 
Q 37.3125 48.390625 33.40625 48.390625 
Q 24.65625 48.390625 19.8125 42.84375 
Q 14.984375 37.3125 14.984375 27.296875 
Q 14.984375 17.28125 19.8125 11.734375 
Q 24.65625 6.203125 33.40625 6.203125 
Q 37.3125 6.203125 41.140625 7.25 
Q 44.96875 8.296875 48.78125 10.40625 
L 48.78125 2.09375 
Q 45.015625 0.34375 40.984375 -0.53125 
Q 36.96875 -1.421875 32.421875 -1.421875 
Q 20.0625 -1.421875 12.78125 6.34375 
Q 5.515625 14.109375 5.515625 27.296875 
Q 5.515625 40.671875 12.859375 48.328125 
Q 20.21875 56 33.015625 56 
Q 37.15625 56 41.109375 55.140625 
Q 45.0625 54.296875 48.78125 52.59375 
z
" id="DejaVuSans-99"/>
       <path d="M 8.5 21.578125 
L 8.5 54.6875 
L 17.484375 54.6875 
L 17.484375 21.921875 
Q 17.484375 14.15625 20.5 10.265625 
Q 23.53125 6.390625 29.59375 6.390625 
Q 36.859375 6.390625 41.078125 11.03125 
Q 45.3125 15.671875 45.3125 23.6875 
L 45.3125 54.6875 
L 54.296875 54.6875 
L 54.296875 0 
L 45.3125 0 
L 45.3125 8.40625 
Q 42.046875 3.421875 37.71875 1 
Q 33.40625 -1.421875 27.6875 -1.421875 
Q 18.265625 -1.421875 13.375 4.4375 
Q 8.5 10.296875 8.5 21.578125 
z
M 31.109375 56 
z
" id="DejaVuSans-117"/>
       <path d="M 18.3125 70.21875 
L 18.3125 54.6875 
L 36.8125 54.6875 
L 36.8125 47.703125 
L 18.3125 47.703125 
L 18.3125 18.015625 
Q 18.3125 11.328125 20.140625 9.421875 
Q 21.96875 7.515625 27.59375 7.515625 
L 36.8125 7.515625 
L 36.8125 0 
L 27.59375 0 
Q 17.1875 0 13.234375 3.875 
Q 9.28125 7.765625 9.28125 18.015625 
L 9.28125 47.703125 
L 2.6875 47.703125 
L 2.6875 54.6875 
L 9.28125 54.6875 
L 9.28125 70.21875 
z
" id="DejaVuSans-116"/>
       <path d="M 9.421875 54.6875 
L 18.40625 54.6875 
L 18.40625 0 
L 9.421875 0 
z
M 9.421875 75.984375 
L 18.40625 75.984375 
L 18.40625 64.59375 
L 9.421875 64.59375 
z
" id="DejaVuSans-105"/>
       <path d="M 30.609375 48.390625 
Q 23.390625 48.390625 19.1875 42.75 
Q 14.984375 37.109375 14.984375 27.296875 
Q 14.984375 17.484375 19.15625 11.84375 
Q 23.34375 6.203125 30.609375 6.203125 
Q 37.796875 6.203125 41.984375 11.859375 
Q 46.1875 17.53125 46.1875 27.296875 
Q 46.1875 37.015625 41.984375 42.703125 
Q 37.796875 48.390625 30.609375 48.390625 
z
M 30.609375 56 
Q 42.328125 56 49.015625 48.375 
Q 55.71875 40.765625 55.71875 27.296875 
Q 55.71875 13.875 49.015625 6.21875 
Q 42.328125 -1.421875 30.609375 -1.421875 
Q 18.84375 -1.421875 12.171875 6.21875 
Q 5.515625 13.875 5.515625 27.296875 
Q 5.515625 40.765625 12.171875 48.375 
Q 18.84375 56 30.609375 56 
z
" id="DejaVuSans-111"/>
       <path d="M 54.890625 33.015625 
L 54.890625 0 
L 45.90625 0 
L 45.90625 32.71875 
Q 45.90625 40.484375 42.875 44.328125 
Q 39.84375 48.1875 33.796875 48.1875 
Q 26.515625 48.1875 22.3125 43.546875 
Q 18.109375 38.921875 18.109375 30.90625 
L 18.109375 0 
L 9.078125 0 
L 9.078125 54.6875 
L 18.109375 54.6875 
L 18.109375 46.1875 
Q 21.34375 51.125 25.703125 53.5625 
Q 30.078125 56 35.796875 56 
Q 45.21875 56 50.046875 50.171875 
Q 54.890625 44.34375 54.890625 33.015625 
z
" id="DejaVuSans-110"/>
       <path id="DejaVuSans-32"/>
       <path d="M 52 44.1875 
Q 55.375 50.25 60.0625 53.125 
Q 64.75 56 71.09375 56 
Q 79.640625 56 84.28125 50.015625 
Q 88.921875 44.046875 88.921875 33.015625 
L 88.921875 0 
L 79.890625 0 
L 79.890625 32.71875 
Q 79.890625 40.578125 77.09375 44.375 
Q 74.3125 48.1875 68.609375 48.1875 
Q 61.625 48.1875 57.5625 43.546875 
Q 53.515625 38.921875 53.515625 30.90625 
L 53.515625 0 
L 44.484375 0 
L 44.484375 32.71875 
Q 44.484375 40.625 41.703125 44.40625 
Q 38.921875 48.1875 33.109375 48.1875 
Q 26.21875 48.1875 22.15625 43.53125 
Q 18.109375 38.875 18.109375 30.90625 
L 18.109375 0 
L 9.078125 0 
L 9.078125 54.6875 
L 18.109375 54.6875 
L 18.109375 46.1875 
Q 21.1875 51.21875 25.484375 53.609375 
Q 29.78125 56 35.6875 56 
Q 41.65625 56 45.828125 52.96875 
Q 50 49.953125 52 44.1875 
z
" id="DejaVuSans-109"/>
       <path d="M 31 75.875 
Q 24.46875 64.65625 21.28125 53.65625 
Q 18.109375 42.671875 18.109375 31.390625 
Q 18.109375 20.125 21.3125 9.0625 
Q 24.515625 -2 31 -13.1875 
L 23.1875 -13.1875 
Q 15.875 -1.703125 12.234375 9.375 
Q 8.59375 20.453125 8.59375 31.390625 
Q 8.59375 42.28125 12.203125 53.3125 
Q 15.828125 64.359375 23.1875 75.875 
z
" id="DejaVuSans-40"/>
       <path d="M 44.28125 53.078125 
L 44.28125 44.578125 
Q 40.484375 46.53125 36.375 47.5 
Q 32.28125 48.484375 27.875 48.484375 
Q 21.1875 48.484375 17.84375 46.4375 
Q 14.5 44.390625 14.5 40.28125 
Q 14.5 37.15625 16.890625 35.375 
Q 19.28125 33.59375 26.515625 31.984375 
L 29.59375 31.296875 
Q 39.15625 29.25 43.1875 25.515625 
Q 47.21875 21.78125 47.21875 15.09375 
Q 47.21875 7.46875 41.1875 3.015625 
Q 35.15625 -1.421875 24.609375 -1.421875 
Q 20.21875 -1.421875 15.453125 -0.5625 
Q 10.6875 0.296875 5.421875 2 
L 5.421875 11.28125 
Q 10.40625 8.6875 15.234375 7.390625 
Q 20.0625 6.109375 24.8125 6.109375 
Q 31.15625 6.109375 34.5625 8.28125 
Q 37.984375 10.453125 37.984375 14.40625 
Q 37.984375 18.0625 35.515625 20.015625 
Q 33.0625 21.96875 24.703125 23.78125 
L 21.578125 24.515625 
Q 13.234375 26.265625 9.515625 29.90625 
Q 5.8125 33.546875 5.8125 39.890625 
Q 5.8125 47.609375 11.28125 51.796875 
Q 16.75 56 26.8125 56 
Q 31.78125 56 36.171875 55.265625 
Q 40.578125 54.546875 44.28125 53.078125 
z
" id="DejaVuSans-115"/>
       <path d="M 8.015625 75.875 
L 15.828125 75.875 
Q 23.140625 64.359375 26.78125 53.3125 
Q 30.421875 42.28125 30.421875 31.390625 
Q 30.421875 20.453125 26.78125 9.375 
Q 23.140625 -1.703125 15.828125 -13.1875 
L 8.015625 -13.1875 
Q 14.5 -2 17.703125 9.0625 
Q 20.90625 20.125 20.90625 31.390625 
Q 20.90625 42.671875 17.703125 53.65625 
Q 14.5 64.65625 8.015625 75.875 
z
" id="DejaVuSans-41"/>
      </defs>
      <use xlink:href="#DejaVuSans-69"/>
      <use x="63.183594" xlink:href="#DejaVuSans-120"/>
      <use x="119.238281" xlink:href="#DejaVuSans-101"/>
      <use x="180.761719" xlink:href="#DejaVuSans-99"/>
      <use x="235.742188" xlink:href="#DejaVuSans-117"/>
      <use x="299.121094" xlink:href="#DejaVuSans-116"/>
      <use x="338.330078" xlink:href="#DejaVuSans-105"/>
      <use x="366.113281" xlink:href="#DejaVuSans-111"/>
      <use x="427.294922" xlink:href="#DejaVuSans-110"/>
      <use x="490.673828" xlink:href="#DejaVuSans-32"/>
      <use x="522.460938" xlink:href="#DejaVuSans-116"/>
      <use x="561.669922" xlink:href="#DejaVuSans-105"/>
      <use x="589.453125" xlink:href="#DejaVuSans-109"/>
      <use x="686.865234" xlink:href="#DejaVuSans-101"/>
      <use x="748.388672" xlink:href="#DejaVuSans-32"/>
      <use x="780.175781" xlink:href="#DejaVuSans-40"/>
      <use x="819.189453" xlink:href="#DejaVuSans-115"/>
      <use x="871.289062" xlink:href="#DejaVuSans-41"/>
     </g>
    </g>
   </g>
   <g id="matplotlib.axis_2">
    <g id="ytick_1">
     <g id="line2d_16">
      <defs>
       <path d="M 0 0 
L -3.5 0 
" id="m75a0232b06" style="stroke:#000000;stroke-width:0.8;"/>
      </defs>
      <g>
       <use style="stroke:#000000;stroke-width:0.8;" x="57.6" xlink:href="#m75a0232b06" y="120.776723"/>
      </g>
     </g>
     <g id="text_4">
      <!-- $\mathdefault{10^{3}}$ -->
      <g transform="translate(33 124.575942)scale(0.1 -0.1)">
       <use transform="translate(0 0.765625)" xlink:href="#DejaVuSans-49"/>
       <use transform="translate(63.623047 0.765625)" xlink:href="#DejaVuSans-48"/>
       <use transform="translate(128.203125 39.046875)scale(0.7)" xlink:href="#DejaVuSans-51"/>
      </g>
     </g>
    </g>
    <g id="ytick_2">
     <g id="line2d_17">
      <defs>
       <path d="M 0 0 
L -2 0 
" id="mf642705390" style="stroke:#000000;stroke-width:0.6;"/>
      </defs>
      <g>
       <use style="stroke:#000000;stroke-width:0.6;" x="57.6" xlink:href="#mf642705390" y="276.928264"/>
      </g>
     </g>
     <g id="text_5">
      <!-- $\mathdefault{3\times10^{2}}$ -->
      <g transform="translate(16 280.727483)scale(0.1 -0.1)">
       <defs>
        <path d="M 70.125 53.71875 
L 47.796875 31.296875 
L 70.125 8.984375 
L 64.3125 3.078125 
L 41.890625 25.484375 
L 19.484375 3.078125 
L 13.71875 8.984375 
L 35.984375 31.296875 
L 13.71875 53.71875 
L 19.484375 59.625 
L 41.890625 37.203125 
L 64.3125 59.625 
z
" id="DejaVuSans-215"/>
       </defs>
       <use transform="translate(0 0.765625)" xlink:href="#DejaVuSans-51"/>
       <use transform="translate(83.105469 0.765625)" xlink:href="#DejaVuSans-215"/>
       <use transform="translate(186.376953 0.765625)" xlink:href="#DejaVuSans-49"/>
       <use transform="translate(250 0.765625)" xlink:href="#DejaVuSans-48"/>
       <use transform="translate(314.580078 39.046875)scale(0.7)" xlink:href="#DejaVuSans-50"/>
      </g>
     </g>
    </g>
    <g id="ytick_3">
     <g id="line2d_18">
      <g>
       <use style="stroke:#000000;stroke-width:0.6;" x="57.6" xlink:href="#mf642705390" y="239.616791"/>
      </g>
     </g>
     <g id="text_6">
      <!-- $\mathdefault{4\times10^{2}}$ -->
      <g transform="translate(16 243.41601)scale(0.1 -0.1)">
       <defs>
        <path d="M 37.796875 64.3125 
L 12.890625 25.390625 
L 37.796875 25.390625 
z
M 35.203125 72.90625 
L 47.609375 72.90625 
L 47.609375 25.390625 
L 58.015625 25.390625 
L 58.015625 17.1875 
L 47.609375 17.1875 
L 47.609375 0 
L 37.796875 0 
L 37.796875 17.1875 
L 4.890625 17.1875 
L 4.890625 26.703125 
z
" id="DejaVuSans-52"/>
       </defs>
       <use transform="translate(0 0.765625)" xlink:href="#DejaVuSans-52"/>
       <use transform="translate(83.105469 0.765625)" xlink:href="#DejaVuSans-215"/>
       <use transform="translate(186.376953 0.765625)" xlink:href="#DejaVuSans-49"/>
       <use transform="translate(250 0.765625)" xlink:href="#DejaVuSans-48"/>
       <use transform="translate(314.580078 39.046875)scale(0.7)" xlink:href="#DejaVuSans-50"/>
      </g>
     </g>
    </g>
    <g id="ytick_4">
     <g id="line2d_19">
      <g>
       <use style="stroke:#000000;stroke-width:0.6;" x="57.6" xlink:href="#mf642705390" y="210.675764"/>
      </g>
     </g>
    </g>
    <g id="ytick_5">
     <g id="line2d_20">
      <g>
       <use style="stroke:#000000;stroke-width:0.6;" x="57.6" xlink:href="#mf642705390" y="187.029223"/>
      </g>
     </g>
     <g id="text_7">
      <!-- $\mathdefault{6\times10^{2}}$ -->
      <g transform="translate(16 190.828442)scale(0.1 -0.1)">
       <defs>
        <path d="M 33.015625 40.375 
Q 26.375 40.375 22.484375 35.828125 
Q 18.609375 31.296875 18.609375 23.390625 
Q 18.609375 15.53125 22.484375 10.953125 
Q 26.375 6.390625 33.015625 6.390625 
Q 39.65625 6.390625 43.53125 10.953125 
Q 47.40625 15.53125 47.40625 23.390625 
Q 47.40625 31.296875 43.53125 35.828125 
Q 39.65625 40.375 33.015625 40.375 
z
M 52.59375 71.296875 
L 52.59375 62.3125 
Q 48.875 64.0625 45.09375 64.984375 
Q 41.3125 65.921875 37.59375 65.921875 
Q 27.828125 65.921875 22.671875 59.328125 
Q 17.53125 52.734375 16.796875 39.40625 
Q 19.671875 43.65625 24.015625 45.921875 
Q 28.375 48.1875 33.59375 48.1875 
Q 44.578125 48.1875 50.953125 41.515625 
Q 57.328125 34.859375 57.328125 23.390625 
Q 57.328125 12.15625 50.6875 5.359375 
Q 44.046875 -1.421875 33.015625 -1.421875 
Q 20.359375 -1.421875 13.671875 8.265625 
Q 6.984375 17.96875 6.984375 36.375 
Q 6.984375 53.65625 15.1875 63.9375 
Q 23.390625 74.21875 37.203125 74.21875 
Q 40.921875 74.21875 44.703125 73.484375 
Q 48.484375 72.75 52.59375 71.296875 
z
" id="DejaVuSans-54"/>
       </defs>
       <use transform="translate(0 0.765625)" xlink:href="#DejaVuSans-54"/>
       <use transform="translate(83.105469 0.765625)" xlink:href="#DejaVuSans-215"/>
       <use transform="translate(186.376953 0.765625)" xlink:href="#DejaVuSans-49"/>
       <use transform="translate(250 0.765625)" xlink:href="#DejaVuSans-48"/>
       <use transform="translate(314.580078 39.046875)scale(0.7)" xlink:href="#DejaVuSans-50"/>
      </g>
     </g>
    </g>
    <g id="ytick_6">
     <g id="line2d_21">
      <g>
       <use style="stroke:#000000;stroke-width:0.6;" x="57.6" xlink:href="#mf642705390" y="167.036358"/>
      </g>
     </g>
    </g>
    <g id="ytick_7">
     <g id="line2d_22">
      <g>
       <use style="stroke:#000000;stroke-width:0.6;" x="57.6" xlink:href="#mf642705390" y="149.71775"/>
      </g>
     </g>
    </g>
    <g id="ytick_8">
     <g id="line2d_23">
      <g>
       <use style="stroke:#000000;stroke-width:0.6;" x="57.6" xlink:href="#mf642705390" y="134.441656"/>
      </g>
     </g>
    </g>
    <g id="text_8">
     <!-- Number of edge species -->
     <g transform="translate(9.920312 235.377219)rotate(-90)scale(0.1 -0.1)">
      <defs>
       <path d="M 9.8125 72.90625 
L 23.09375 72.90625 
L 55.421875 11.921875 
L 55.421875 72.90625 
L 64.984375 72.90625 
L 64.984375 0 
L 51.703125 0 
L 19.390625 60.984375 
L 19.390625 0 
L 9.8125 0 
z
" id="DejaVuSans-78"/>
       <path d="M 48.6875 27.296875 
Q 48.6875 37.203125 44.609375 42.84375 
Q 40.53125 48.484375 33.40625 48.484375 
Q 26.265625 48.484375 22.1875 42.84375 
Q 18.109375 37.203125 18.109375 27.296875 
Q 18.109375 17.390625 22.1875 11.75 
Q 26.265625 6.109375 33.40625 6.109375 
Q 40.53125 6.109375 44.609375 11.75 
Q 48.6875 17.390625 48.6875 27.296875 
z
M 18.109375 46.390625 
Q 20.953125 51.265625 25.265625 53.625 
Q 29.59375 56 35.59375 56 
Q 45.5625 56 51.78125 48.09375 
Q 58.015625 40.1875 58.015625 27.296875 
Q 58.015625 14.40625 51.78125 6.484375 
Q 45.5625 -1.421875 35.59375 -1.421875 
Q 29.59375 -1.421875 25.265625 0.953125 
Q 20.953125 3.328125 18.109375 8.203125 
L 18.109375 0 
L 9.078125 0 
L 9.078125 75.984375 
L 18.109375 75.984375 
z
" id="DejaVuSans-98"/>
       <path d="M 41.109375 46.296875 
Q 39.59375 47.171875 37.8125 47.578125 
Q 36.03125 48 33.890625 48 
Q 26.265625 48 22.1875 43.046875 
Q 18.109375 38.09375 18.109375 28.8125 
L 18.109375 0 
L 9.078125 0 
L 9.078125 54.6875 
L 18.109375 54.6875 
L 18.109375 46.1875 
Q 20.953125 51.171875 25.484375 53.578125 
Q 30.03125 56 36.53125 56 
Q 37.453125 56 38.578125 55.875 
Q 39.703125 55.765625 41.0625 55.515625 
z
" id="DejaVuSans-114"/>
       <path d="M 37.109375 75.984375 
L 37.109375 68.5 
L 28.515625 68.5 
Q 23.6875 68.5 21.796875 66.546875 
Q 19.921875 64.59375 19.921875 59.515625 
L 19.921875 54.6875 
L 34.71875 54.6875 
L 34.71875 47.703125 
L 19.921875 47.703125 
L 19.921875 0 
L 10.890625 0 
L 10.890625 47.703125 
L 2.296875 47.703125 
L 2.296875 54.6875 
L 10.890625 54.6875 
L 10.890625 58.5 
Q 10.890625 67.625 15.140625 71.796875 
Q 19.390625 75.984375 28.609375 75.984375 
z
" id="DejaVuSans-102"/>
       <path d="M 45.40625 46.390625 
L 45.40625 75.984375 
L 54.390625 75.984375 
L 54.390625 0 
L 45.40625 0 
L 45.40625 8.203125 
Q 42.578125 3.328125 38.25 0.953125 
Q 33.9375 -1.421875 27.875 -1.421875 
Q 17.96875 -1.421875 11.734375 6.484375 
Q 5.515625 14.40625 5.515625 27.296875 
Q 5.515625 40.1875 11.734375 48.09375 
Q 17.96875 56 27.875 56 
Q 33.9375 56 38.25 53.625 
Q 42.578125 51.265625 45.40625 46.390625 
z
M 14.796875 27.296875 
Q 14.796875 17.390625 18.875 11.75 
Q 22.953125 6.109375 30.078125 6.109375 
Q 37.203125 6.109375 41.296875 11.75 
Q 45.40625 17.390625 45.40625 27.296875 
Q 45.40625 37.203125 41.296875 42.84375 
Q 37.203125 48.484375 30.078125 48.484375 
Q 22.953125 48.484375 18.875 42.84375 
Q 14.796875 37.203125 14.796875 27.296875 
z
" id="DejaVuSans-100"/>
       <path d="M 45.40625 27.984375 
Q 45.40625 37.75 41.375 43.109375 
Q 37.359375 48.484375 30.078125 48.484375 
Q 22.859375 48.484375 18.828125 43.109375 
Q 14.796875 37.75 14.796875 27.984375 
Q 14.796875 18.265625 18.828125 12.890625 
Q 22.859375 7.515625 30.078125 7.515625 
Q 37.359375 7.515625 41.375 12.890625 
Q 45.40625 18.265625 45.40625 27.984375 
z
M 54.390625 6.78125 
Q 54.390625 -7.171875 48.1875 -13.984375 
Q 42 -20.796875 29.203125 -20.796875 
Q 24.46875 -20.796875 20.265625 -20.09375 
Q 16.0625 -19.390625 12.109375 -17.921875 
L 12.109375 -9.1875 
Q 16.0625 -11.328125 19.921875 -12.34375 
Q 23.78125 -13.375 27.78125 -13.375 
Q 36.625 -13.375 41.015625 -8.765625 
Q 45.40625 -4.15625 45.40625 5.171875 
L 45.40625 9.625 
Q 42.625 4.78125 38.28125 2.390625 
Q 33.9375 0 27.875 0 
Q 17.828125 0 11.671875 7.65625 
Q 5.515625 15.328125 5.515625 27.984375 
Q 5.515625 40.671875 11.671875 48.328125 
Q 17.828125 56 27.875 56 
Q 33.9375 56 38.28125 53.609375 
Q 42.625 51.21875 45.40625 46.390625 
L 45.40625 54.6875 
L 54.390625 54.6875 
z
" id="DejaVuSans-103"/>
       <path d="M 18.109375 8.203125 
L 18.109375 -20.796875 
L 9.078125 -20.796875 
L 9.078125 54.6875 
L 18.109375 54.6875 
L 18.109375 46.390625 
Q 20.953125 51.265625 25.265625 53.625 
Q 29.59375 56 35.59375 56 
Q 45.5625 56 51.78125 48.09375 
Q 58.015625 40.1875 58.015625 27.296875 
Q 58.015625 14.40625 51.78125 6.484375 
Q 45.5625 -1.421875 35.59375 -1.421875 
Q 29.59375 -1.421875 25.265625 0.953125 
Q 20.953125 3.328125 18.109375 8.203125 
z
M 48.6875 27.296875 
Q 48.6875 37.203125 44.609375 42.84375 
Q 40.53125 48.484375 33.40625 48.484375 
Q 26.265625 48.484375 22.1875 42.84375 
Q 18.109375 37.203125 18.109375 27.296875 
Q 18.109375 17.390625 22.1875 11.75 
Q 26.265625 6.109375 33.40625 6.109375 
Q 40.53125 6.109375 44.609375 11.75 
Q 48.6875 17.390625 48.6875 27.296875 
z
" id="DejaVuSans-112"/>
      </defs>
      <use xlink:href="#DejaVuSans-78"/>
      <use x="74.804688" xlink:href="#DejaVuSans-117"/>
      <use x="138.183594" xlink:href="#DejaVuSans-109"/>
      <use x="235.595703" xlink:href="#DejaVuSans-98"/>
      <use x="299.072266" xlink:href="#DejaVuSans-101"/>
      <use x="360.595703" xlink:href="#DejaVuSans-114"/>
      <use x="401.708984" xlink:href="#DejaVuSans-32"/>
      <use x="433.496094" xlink:href="#DejaVuSans-111"/>
      <use x="494.677734" xlink:href="#DejaVuSans-102"/>
      <use x="529.882812" xlink:href="#DejaVuSans-32"/>
      <use x="561.669922" xlink:href="#DejaVuSans-101"/>
      <use x="623.193359" xlink:href="#DejaVuSans-100"/>
      <use x="686.669922" xlink:href="#DejaVuSans-103"/>
      <use x="750.146484" xlink:href="#DejaVuSans-101"/>
      <use x="811.669922" xlink:href="#DejaVuSans-32"/>
      <use x="843.457031" xlink:href="#DejaVuSans-115"/>
      <use x="895.556641" xlink:href="#DejaVuSans-112"/>
      <use x="959.033203" xlink:href="#DejaVuSans-101"/>
      <use x="1020.556641" xlink:href="#DejaVuSans-99"/>
      <use x="1075.537109" xlink:href="#DejaVuSans-105"/>
      <use x="1103.320312" xlink:href="#DejaVuSans-101"/>
      <use x="1164.84375" xlink:href="#DejaVuSans-115"/>
     </g>
    </g>
   </g>
   <g id="line2d_24">
    <path clip-path="url(#p786dd92bf3)" d="M 73.832727 295.488 
L 84.729214 294.990123 
L 90.935318 293.017508 
L 96.835301 289.160067 
L 101.993104 289.636019 
L 107.058184 287.7426 
L 111.912119 288.21337 
L 116.588128 282.22275 
L 121.068333 282.67387 
L 125.778151 279.108095 
L 130.053407 278.231762 
L 134.9018 273.094579 
L 139.299322 267.347574 
L 143.146689 267.749735 
L 147.667151 261.077016 
L 151.266121 261.460168 
L 155.052779 254.004271 
L 157.656052 254.367059 
L 161.302195 250.079168 
L 164.566785 244.573964 
L 167.839644 242.900432 
L 171.289322 238.647694 
L 174.895823 231.145059 
L 178.528059 226.081621 
L 184.379247 220.927423 
L 191.427187 211.195592 
L 198.211448 201.175406 
L 202.822736 185.098216 
L 208.871121 180.907322 
L 217.457901 169.279012 
L 220.916109 165.014112 
L 223.268744 164.286497 
L 226.68178 159.829121 
L 229.708842 155.012236 
L 234.428762 148.909667 
L 239.472769 143.85385 
L 244.258875 137.799219 
L 250.694462 133.293888 
L 256.395953 131.873316 
L 259.072143 124.326683 
L 262.241398 120.776723 
L 268.343047 117.321348 
L 271.058468 110.795115 
L 273.44412 107.709773 
L 276.158525 107.59256 
L 278.696713 104.467182 
L 283.409899 102.087355 
L 285.713679 100.413824 
L 288.566 100.524723 
L 290.853853 96.806345 
L 294.300242 87.850996 
L 298.867021 83.206116 
L 300.956688 83.012104 
L 302.73747 83.109073 
L 305.411796 81.087782 
L 307.958116 81.087782 
L 310.555406 81.087782 
L 312.725395 80.801581 
L 314.999127 80.801581 
L 317.877455 80.516009 
L 320.16443 80.516009 
L 322.189581 77.973775 
L 324.548924 77.973775 
L 326.119548 76.582661 
L 328.106219 75.480415 
L 330.244945 75.480415 
L 332.270346 75.480415 
L 335.420934 73.213721 
L 337.443689 73.213721 
L 339.353268 73.213721 
L 341.261461 73.213721 
L 343.119401 73.213721 
L 344.98565 73.213721 
L 346.710802 69.056697 
L 348.381129 69.056697 
L 349.922607 68.016342 
L 351.615436 63.518714 
L 353.606589 63.518714 
L 356.450095 56.142519 
L 358.378867 56.142519 
L 360.109277 56.142519 
L 361.827267 56.142519 
L 363.526649 56.142519 
L 365.178375 56.142519 
L 366.382746 54.109856 
L 368.151138 54.109856 
L 369.656182 54.109856 
L 371.212836 54.109856 
L 372.751714 54.109856 
L 374.230348 54.109856 
L 377.584378 53.568 
L 379.064366 53.568 
L 380.436984 53.568 
L 381.79693 53.568 
L 383.154575 53.568 
L 384.50934 53.568 
L 385.830256 53.568 
L 387.732684 234.529986 
L 388.248764 234.529986 
L 388.736641 234.529986 
L 389.229203 234.529986 
L 389.706747 234.529986 
L 390.224694 234.529986 
L 390.698066 234.529986 
L 391.195549 234.529986 
L 391.659585 234.529986 
L 392.161351 234.529986 
L 392.655622 234.529986 
L 393.117471 234.529986 
L 393.669769 265.355263 
L 394.117888 265.355263 
L 394.579543 265.355263 
L 395.041077 265.355263 
L 395.480629 265.355263 
L 395.920406 265.355263 
L 396.362532 265.355263 
L 396.790923 265.355263 
L 397.232493 265.355263 
L 397.642851 265.355263 
L 398.067753 265.355263 
L 398.487273 265.355263 
" style="fill:none;stroke:#0000ff;stroke-linecap:square;stroke-width:1.5;"/>
    <defs>
     <path d="M 0 3 
C 0.795609 3 1.55874 2.683901 2.12132 2.12132 
C 2.683901 1.55874 3 0.795609 3 0 
C 3 -0.795609 2.683901 -1.55874 2.12132 -2.12132 
C 1.55874 -2.683901 0.795609 -3 0 -3 
C -0.795609 -3 -1.55874 -2.683901 -2.12132 -2.12132 
C -2.683901 -1.55874 -3 -0.795609 -3 0 
C -3 0.795609 -2.683901 1.55874 -2.12132 2.12132 
C -1.55874 2.683901 -0.795609 3 0 3 
z
" id="mec827ec83e" style="stroke:#0000ff;"/>
    </defs>
    <g clip-path="url(#p786dd92bf3)">
     <use style="fill:#0000ff;stroke:#0000ff;" x="73.832727" xlink:href="#mec827ec83e" y="295.488"/>
     <use style="fill:#0000ff;stroke:#0000ff;" x="84.729214" xlink:href="#mec827ec83e" y="294.990123"/>
     <use style="fill:#0000ff;stroke:#0000ff;" x="90.935318" xlink:href="#mec827ec83e" y="293.017508"/>
     <use style="fill:#0000ff;stroke:#0000ff;" x="96.835301" xlink:href="#mec827ec83e" y="289.160067"/>
     <use style="fill:#0000ff;stroke:#0000ff;" x="101.993104" xlink:href="#mec827ec83e" y="289.636019"/>
     <use style="fill:#0000ff;stroke:#0000ff;" x="107.058184" xlink:href="#mec827ec83e" y="287.7426"/>
     <use style="fill:#0000ff;stroke:#0000ff;" x="111.912119" xlink:href="#mec827ec83e" y="288.21337"/>
     <use style="fill:#0000ff;stroke:#0000ff;" x="116.588128" xlink:href="#mec827ec83e" y="282.22275"/>
     <use style="fill:#0000ff;stroke:#0000ff;" x="121.068333" xlink:href="#mec827ec83e" y="282.67387"/>
     <use style="fill:#0000ff;stroke:#0000ff;" x="125.778151" xlink:href="#mec827ec83e" y="279.108095"/>
     <use style="fill:#0000ff;stroke:#0000ff;" x="130.053407" xlink:href="#mec827ec83e" y="278.231762"/>
     <use style="fill:#0000ff;stroke:#0000ff;" x="134.9018" xlink:href="#mec827ec83e" y="273.094579"/>
     <use style="fill:#0000ff;stroke:#0000ff;" x="139.299322" xlink:href="#mec827ec83e" y="267.347574"/>
     <use style="fill:#0000ff;stroke:#0000ff;" x="143.146689" xlink:href="#mec827ec83e" y="267.749735"/>
     <use style="fill:#0000ff;stroke:#0000ff;" x="147.667151" xlink:href="#mec827ec83e" y="261.077016"/>
     <use style="fill:#0000ff;stroke:#0000ff;" x="151.266121" xlink:href="#mec827ec83e" y="261.460168"/>
     <use style="fill:#0000ff;stroke:#0000ff;" x="155.052779" xlink:href="#mec827ec83e" y="254.004271"/>
     <use style="fill:#0000ff;stroke:#0000ff;" x="157.656052" xlink:href="#mec827ec83e" y="254.367059"/>
     <use style="fill:#0000ff;stroke:#0000ff;" x="161.302195" xlink:href="#mec827ec83e" y="250.079168"/>
     <use style="fill:#0000ff;stroke:#0000ff;" x="164.566785" xlink:href="#mec827ec83e" y="244.573964"/>
     <use style="fill:#0000ff;stroke:#0000ff;" x="167.839644" xlink:href="#mec827ec83e" y="242.900432"/>
     <use style="fill:#0000ff;stroke:#0000ff;" x="171.289322" xlink:href="#mec827ec83e" y="238.647694"/>
     <use style="fill:#0000ff;stroke:#0000ff;" x="174.895823" xlink:href="#mec827ec83e" y="231.145059"/>
     <use style="fill:#0000ff;stroke:#0000ff;" x="178.528059" xlink:href="#mec827ec83e" y="226.081621"/>
     <use style="fill:#0000ff;stroke:#0000ff;" x="184.379247" xlink:href="#mec827ec83e" y="220.927423"/>
     <use style="fill:#0000ff;stroke:#0000ff;" x="191.427187" xlink:href="#mec827ec83e" y="211.195592"/>
     <use style="fill:#0000ff;stroke:#0000ff;" x="198.211448" xlink:href="#mec827ec83e" y="201.175406"/>
     <use style="fill:#0000ff;stroke:#0000ff;" x="202.822736" xlink:href="#mec827ec83e" y="185.098216"/>
     <use style="fill:#0000ff;stroke:#0000ff;" x="208.871121" xlink:href="#mec827ec83e" y="180.907322"/>
     <use style="fill:#0000ff;stroke:#0000ff;" x="217.457901" xlink:href="#mec827ec83e" y="169.279012"/>
     <use style="fill:#0000ff;stroke:#0000ff;" x="220.916109" xlink:href="#mec827ec83e" y="165.014112"/>
     <use style="fill:#0000ff;stroke:#0000ff;" x="223.268744" xlink:href="#mec827ec83e" y="164.286497"/>
     <use style="fill:#0000ff;stroke:#0000ff;" x="226.68178" xlink:href="#mec827ec83e" y="159.829121"/>
     <use style="fill:#0000ff;stroke:#0000ff;" x="229.708842" xlink:href="#mec827ec83e" y="155.012236"/>
     <use style="fill:#0000ff;stroke:#0000ff;" x="234.428762" xlink:href="#mec827ec83e" y="148.909667"/>
     <use style="fill:#0000ff;stroke:#0000ff;" x="239.472769" xlink:href="#mec827ec83e" y="143.85385"/>
     <use style="fill:#0000ff;stroke:#0000ff;" x="244.258875" xlink:href="#mec827ec83e" y="137.799219"/>
     <use style="fill:#0000ff;stroke:#0000ff;" x="250.694462" xlink:href="#mec827ec83e" y="133.293888"/>
     <use style="fill:#0000ff;stroke:#0000ff;" x="256.395953" xlink:href="#mec827ec83e" y="131.873316"/>
     <use style="fill:#0000ff;stroke:#0000ff;" x="259.072143" xlink:href="#mec827ec83e" y="124.326683"/>
     <use style="fill:#0000ff;stroke:#0000ff;" x="262.241398" xlink:href="#mec827ec83e" y="120.776723"/>
     <use style="fill:#0000ff;stroke:#0000ff;" x="268.343047" xlink:href="#mec827ec83e" y="117.321348"/>
     <use style="fill:#0000ff;stroke:#0000ff;" x="271.058468" xlink:href="#mec827ec83e" y="110.795115"/>
     <use style="fill:#0000ff;stroke:#0000ff;" x="273.44412" xlink:href="#mec827ec83e" y="107.709773"/>
     <use style="fill:#0000ff;stroke:#0000ff;" x="276.158525" xlink:href="#mec827ec83e" y="107.59256"/>
     <use style="fill:#0000ff;stroke:#0000ff;" x="278.696713" xlink:href="#mec827ec83e" y="104.467182"/>
     <use style="fill:#0000ff;stroke:#0000ff;" x="283.409899" xlink:href="#mec827ec83e" y="102.087355"/>
     <use style="fill:#0000ff;stroke:#0000ff;" x="285.713679" xlink:href="#mec827ec83e" y="100.413824"/>
     <use style="fill:#0000ff;stroke:#0000ff;" x="288.566" xlink:href="#mec827ec83e" y="100.524723"/>
     <use style="fill:#0000ff;stroke:#0000ff;" x="290.853853" xlink:href="#mec827ec83e" y="96.806345"/>
     <use style="fill:#0000ff;stroke:#0000ff;" x="294.300242" xlink:href="#mec827ec83e" y="87.850996"/>
     <use style="fill:#0000ff;stroke:#0000ff;" x="298.867021" xlink:href="#mec827ec83e" y="83.206116"/>
     <use style="fill:#0000ff;stroke:#0000ff;" x="300.956688" xlink:href="#mec827ec83e" y="83.012104"/>
     <use style="fill:#0000ff;stroke:#0000ff;" x="302.73747" xlink:href="#mec827ec83e" y="83.109073"/>
     <use style="fill:#0000ff;stroke:#0000ff;" x="305.411796" xlink:href="#mec827ec83e" y="81.087782"/>
     <use style="fill:#0000ff;stroke:#0000ff;" x="307.958116" xlink:href="#mec827ec83e" y="81.087782"/>
     <use style="fill:#0000ff;stroke:#0000ff;" x="310.555406" xlink:href="#mec827ec83e" y="81.087782"/>
     <use style="fill:#0000ff;stroke:#0000ff;" x="312.725395" xlink:href="#mec827ec83e" y="80.801581"/>
     <use style="fill:#0000ff;stroke:#0000ff;" x="314.999127" xlink:href="#mec827ec83e" y="80.801581"/>
     <use style="fill:#0000ff;stroke:#0000ff;" x="317.877455" xlink:href="#mec827ec83e" y="80.516009"/>
     <use style="fill:#0000ff;stroke:#0000ff;" x="320.16443" xlink:href="#mec827ec83e" y="80.516009"/>
     <use style="fill:#0000ff;stroke:#0000ff;" x="322.189581" xlink:href="#mec827ec83e" y="77.973775"/>
     <use style="fill:#0000ff;stroke:#0000ff;" x="324.548924" xlink:href="#mec827ec83e" y="77.973775"/>
     <use style="fill:#0000ff;stroke:#0000ff;" x="326.119548" xlink:href="#mec827ec83e" y="76.582661"/>
     <use style="fill:#0000ff;stroke:#0000ff;" x="328.106219" xlink:href="#mec827ec83e" y="75.480415"/>
     <use style="fill:#0000ff;stroke:#0000ff;" x="330.244945" xlink:href="#mec827ec83e" y="75.480415"/>
     <use style="fill:#0000ff;stroke:#0000ff;" x="332.270346" xlink:href="#mec827ec83e" y="75.480415"/>
     <use style="fill:#0000ff;stroke:#0000ff;" x="335.420934" xlink:href="#mec827ec83e" y="73.213721"/>
     <use style="fill:#0000ff;stroke:#0000ff;" x="337.443689" xlink:href="#mec827ec83e" y="73.213721"/>
     <use style="fill:#0000ff;stroke:#0000ff;" x="339.353268" xlink:href="#mec827ec83e" y="73.213721"/>
     <use style="fill:#0000ff;stroke:#0000ff;" x="341.261461" xlink:href="#mec827ec83e" y="73.213721"/>
     <use style="fill:#0000ff;stroke:#0000ff;" x="343.119401" xlink:href="#mec827ec83e" y="73.213721"/>
     <use style="fill:#0000ff;stroke:#0000ff;" x="344.98565" xlink:href="#mec827ec83e" y="73.213721"/>
     <use style="fill:#0000ff;stroke:#0000ff;" x="346.710802" xlink:href="#mec827ec83e" y="69.056697"/>
     <use style="fill:#0000ff;stroke:#0000ff;" x="348.381129" xlink:href="#mec827ec83e" y="69.056697"/>
     <use style="fill:#0000ff;stroke:#0000ff;" x="349.922607" xlink:href="#mec827ec83e" y="68.016342"/>
     <use style="fill:#0000ff;stroke:#0000ff;" x="351.615436" xlink:href="#mec827ec83e" y="63.518714"/>
     <use style="fill:#0000ff;stroke:#0000ff;" x="353.606589" xlink:href="#mec827ec83e" y="63.518714"/>
     <use style="fill:#0000ff;stroke:#0000ff;" x="356.450095" xlink:href="#mec827ec83e" y="56.142519"/>
     <use style="fill:#0000ff;stroke:#0000ff;" x="358.378867" xlink:href="#mec827ec83e" y="56.142519"/>
     <use style="fill:#0000ff;stroke:#0000ff;" x="360.109277" xlink:href="#mec827ec83e" y="56.142519"/>
     <use style="fill:#0000ff;stroke:#0000ff;" x="361.827267" xlink:href="#mec827ec83e" y="56.142519"/>
     <use style="fill:#0000ff;stroke:#0000ff;" x="363.526649" xlink:href="#mec827ec83e" y="56.142519"/>
     <use style="fill:#0000ff;stroke:#0000ff;" x="365.178375" xlink:href="#mec827ec83e" y="56.142519"/>
     <use style="fill:#0000ff;stroke:#0000ff;" x="366.382746" xlink:href="#mec827ec83e" y="54.109856"/>
     <use style="fill:#0000ff;stroke:#0000ff;" x="368.151138" xlink:href="#mec827ec83e" y="54.109856"/>
     <use style="fill:#0000ff;stroke:#0000ff;" x="369.656182" xlink:href="#mec827ec83e" y="54.109856"/>
     <use style="fill:#0000ff;stroke:#0000ff;" x="371.212836" xlink:href="#mec827ec83e" y="54.109856"/>
     <use style="fill:#0000ff;stroke:#0000ff;" x="372.751714" xlink:href="#mec827ec83e" y="54.109856"/>
     <use style="fill:#0000ff;stroke:#0000ff;" x="374.230348" xlink:href="#mec827ec83e" y="54.109856"/>
     <use style="fill:#0000ff;stroke:#0000ff;" x="377.584378" xlink:href="#mec827ec83e" y="53.568"/>
     <use style="fill:#0000ff;stroke:#0000ff;" x="379.064366" xlink:href="#mec827ec83e" y="53.568"/>
     <use style="fill:#0000ff;stroke:#0000ff;" x="380.436984" xlink:href="#mec827ec83e" y="53.568"/>
     <use style="fill:#0000ff;stroke:#0000ff;" x="381.79693" xlink:href="#mec827ec83e" y="53.568"/>
     <use style="fill:#0000ff;stroke:#0000ff;" x="383.154575" xlink:href="#mec827ec83e" y="53.568"/>
     <use style="fill:#0000ff;stroke:#0000ff;" x="384.50934" xlink:href="#mec827ec83e" y="53.568"/>
     <use style="fill:#0000ff;stroke:#0000ff;" x="385.830256" xlink:href="#mec827ec83e" y="53.568"/>
     <use style="fill:#0000ff;stroke:#0000ff;" x="387.732684" xlink:href="#mec827ec83e" y="234.529986"/>
     <use style="fill:#0000ff;stroke:#0000ff;" x="388.248764" xlink:href="#mec827ec83e" y="234.529986"/>
     <use style="fill:#0000ff;stroke:#0000ff;" x="388.736641" xlink:href="#mec827ec83e" y="234.529986"/>
     <use style="fill:#0000ff;stroke:#0000ff;" x="389.229203" xlink:href="#mec827ec83e" y="234.529986"/>
     <use style="fill:#0000ff;stroke:#0000ff;" x="389.706747" xlink:href="#mec827ec83e" y="234.529986"/>
     <use style="fill:#0000ff;stroke:#0000ff;" x="390.224694" xlink:href="#mec827ec83e" y="234.529986"/>
     <use style="fill:#0000ff;stroke:#0000ff;" x="390.698066" xlink:href="#mec827ec83e" y="234.529986"/>
     <use style="fill:#0000ff;stroke:#0000ff;" x="391.195549" xlink:href="#mec827ec83e" y="234.529986"/>
     <use style="fill:#0000ff;stroke:#0000ff;" x="391.659585" xlink:href="#mec827ec83e" y="234.529986"/>
     <use style="fill:#0000ff;stroke:#0000ff;" x="392.161351" xlink:href="#mec827ec83e" y="234.529986"/>
     <use style="fill:#0000ff;stroke:#0000ff;" x="392.655622" xlink:href="#mec827ec83e" y="234.529986"/>
     <use style="fill:#0000ff;stroke:#0000ff;" x="393.117471" xlink:href="#mec827ec83e" y="234.529986"/>
     <use style="fill:#0000ff;stroke:#0000ff;" x="393.669769" xlink:href="#mec827ec83e" y="265.355263"/>
     <use style="fill:#0000ff;stroke:#0000ff;" x="394.117888" xlink:href="#mec827ec83e" y="265.355263"/>
     <use style="fill:#0000ff;stroke:#0000ff;" x="394.579543" xlink:href="#mec827ec83e" y="265.355263"/>
     <use style="fill:#0000ff;stroke:#0000ff;" x="395.041077" xlink:href="#mec827ec83e" y="265.355263"/>
     <use style="fill:#0000ff;stroke:#0000ff;" x="395.480629" xlink:href="#mec827ec83e" y="265.355263"/>
     <use style="fill:#0000ff;stroke:#0000ff;" x="395.920406" xlink:href="#mec827ec83e" y="265.355263"/>
     <use style="fill:#0000ff;stroke:#0000ff;" x="396.362532" xlink:href="#mec827ec83e" y="265.355263"/>
     <use style="fill:#0000ff;stroke:#0000ff;" x="396.790923" xlink:href="#mec827ec83e" y="265.355263"/>
     <use style="fill:#0000ff;stroke:#0000ff;" x="397.232493" xlink:href="#mec827ec83e" y="265.355263"/>
     <use style="fill:#0000ff;stroke:#0000ff;" x="397.642851" xlink:href="#mec827ec83e" y="265.355263"/>
     <use style="fill:#0000ff;stroke:#0000ff;" x="398.067753" xlink:href="#mec827ec83e" y="265.355263"/>
     <use style="fill:#0000ff;stroke:#0000ff;" x="398.487273" xlink:href="#mec827ec83e" y="265.355263"/>
    </g>
   </g>
   <g id="patch_3">
    <path d="M 57.6 307.584 
L 57.6 41.472 
" style="fill:none;stroke:#000000;stroke-linecap:square;stroke-linejoin:miter;stroke-width:0.8;"/>
   </g>
   <g id="patch_4">
    <path d="M 414.72 307.584 
L 414.72 41.472 
" style="fill:none;stroke:#000000;stroke-linecap:square;stroke-linejoin:miter;stroke-width:0.8;"/>
   </g>
   <g id="patch_5">
    <path d="M 57.6 307.584 
L 414.72 307.584 
" style="fill:none;stroke:#000000;stroke-linecap:square;stroke-linejoin:miter;stroke-width:0.8;"/>
   </g>
   <g id="patch_6">
    <path d="M 57.6 41.472 
L 414.72 41.472 
" style="fill:none;stroke:#000000;stroke-linecap:square;stroke-linejoin:miter;stroke-width:0.8;"/>
   </g>
  </g>
  <g id="axes_2">
   <g id="matplotlib.axis_3">
    <g id="ytick_9">
     <g id="line2d_25">
      <defs>
       <path d="M 0 0 
L 3.5 0 
" id="m27629b46f8" style="stroke:#000000;stroke-width:0.8;"/>
      </defs>
      <g>
       <use style="stroke:#000000;stroke-width:0.8;" x="414.72" xlink:href="#m27629b46f8" y="237.285794"/>
      </g>
     </g>
     <g id="text_9">
      <!-- $\mathdefault{10^{3}}$ -->
      <g transform="translate(421.72 241.085012)scale(0.1 -0.1)">
       <use transform="translate(0 0.765625)" xlink:href="#DejaVuSans-49"/>
       <use transform="translate(63.623047 0.765625)" xlink:href="#DejaVuSans-48"/>
       <use transform="translate(128.203125 39.046875)scale(0.7)" xlink:href="#DejaVuSans-51"/>
      </g>
     </g>
    </g>
    <g id="ytick_10">
     <g id="line2d_26">
      <defs>
       <path d="M 0 0 
L 2 0 
" id="m7036e63f2a" style="stroke:#000000;stroke-width:0.6;"/>
      </defs>
      <g>
       <use style="stroke:#000000;stroke-width:0.6;" x="414.72" xlink:href="#m7036e63f2a" y="305.179103"/>
      </g>
     </g>
    </g>
    <g id="ytick_11">
     <g id="line2d_27">
      <g>
       <use style="stroke:#000000;stroke-width:0.6;" x="414.72" xlink:href="#m7036e63f2a" y="287.320826"/>
      </g>
     </g>
    </g>
    <g id="ytick_12">
     <g id="line2d_28">
      <g>
       <use style="stroke:#000000;stroke-width:0.6;" x="414.72" xlink:href="#m7036e63f2a" y="272.221869"/>
      </g>
     </g>
    </g>
    <g id="ytick_13">
     <g id="line2d_29">
      <g>
       <use style="stroke:#000000;stroke-width:0.6;" x="414.72" xlink:href="#m7036e63f2a" y="259.142557"/>
      </g>
     </g>
    </g>
    <g id="ytick_14">
     <g id="line2d_30">
      <g>
       <use style="stroke:#000000;stroke-width:0.6;" x="414.72" xlink:href="#m7036e63f2a" y="247.605787"/>
      </g>
     </g>
    </g>
    <g id="ytick_15">
     <g id="line2d_31">
      <g>
       <use style="stroke:#000000;stroke-width:0.6;" x="414.72" xlink:href="#m7036e63f2a" y="169.392485"/>
      </g>
     </g>
    </g>
    <g id="ytick_16">
     <g id="line2d_32">
      <g>
       <use style="stroke:#000000;stroke-width:0.6;" x="414.72" xlink:href="#m7036e63f2a" y="129.677445"/>
      </g>
     </g>
    </g>
    <g id="ytick_17">
     <g id="line2d_33">
      <g>
       <use style="stroke:#000000;stroke-width:0.6;" x="414.72" xlink:href="#m7036e63f2a" y="101.499176"/>
      </g>
     </g>
    </g>
    <g id="ytick_18">
     <g id="line2d_34">
      <g>
       <use style="stroke:#000000;stroke-width:0.6;" x="414.72" xlink:href="#m7036e63f2a" y="79.642412"/>
      </g>
     </g>
    </g>
    <g id="ytick_19">
     <g id="line2d_35">
      <g>
       <use style="stroke:#000000;stroke-width:0.6;" x="414.72" xlink:href="#m7036e63f2a" y="61.784136"/>
      </g>
     </g>
    </g>
    <g id="ytick_20">
     <g id="line2d_36">
      <g>
       <use style="stroke:#000000;stroke-width:0.6;" x="414.72" xlink:href="#m7036e63f2a" y="46.685179"/>
      </g>
     </g>
    </g>
    <g id="text_10">
     <!-- Number of edge reactions -->
     <g transform="translate(450.918438 239.717062)rotate(-90)scale(0.1 -0.1)">
      <defs>
       <path d="M 34.28125 27.484375 
Q 23.390625 27.484375 19.1875 25 
Q 14.984375 22.515625 14.984375 16.5 
Q 14.984375 11.71875 18.140625 8.90625 
Q 21.296875 6.109375 26.703125 6.109375 
Q 34.1875 6.109375 38.703125 11.40625 
Q 43.21875 16.703125 43.21875 25.484375 
L 43.21875 27.484375 
z
M 52.203125 31.203125 
L 52.203125 0 
L 43.21875 0 
L 43.21875 8.296875 
Q 40.140625 3.328125 35.546875 0.953125 
Q 30.953125 -1.421875 24.3125 -1.421875 
Q 15.921875 -1.421875 10.953125 3.296875 
Q 6 8.015625 6 15.921875 
Q 6 25.140625 12.171875 29.828125 
Q 18.359375 34.515625 30.609375 34.515625 
L 43.21875 34.515625 
L 43.21875 35.40625 
Q 43.21875 41.609375 39.140625 45 
Q 35.0625 48.390625 27.6875 48.390625 
Q 23 48.390625 18.546875 47.265625 
Q 14.109375 46.140625 10.015625 43.890625 
L 10.015625 52.203125 
Q 14.9375 54.109375 19.578125 55.046875 
Q 24.21875 56 28.609375 56 
Q 40.484375 56 46.34375 49.84375 
Q 52.203125 43.703125 52.203125 31.203125 
z
" id="DejaVuSans-97"/>
      </defs>
      <use xlink:href="#DejaVuSans-78"/>
      <use x="74.804688" xlink:href="#DejaVuSans-117"/>
      <use x="138.183594" xlink:href="#DejaVuSans-109"/>
      <use x="235.595703" xlink:href="#DejaVuSans-98"/>
      <use x="299.072266" xlink:href="#DejaVuSans-101"/>
      <use x="360.595703" xlink:href="#DejaVuSans-114"/>
      <use x="401.708984" xlink:href="#DejaVuSans-32"/>
      <use x="433.496094" xlink:href="#DejaVuSans-111"/>
      <use x="494.677734" xlink:href="#DejaVuSans-102"/>
      <use x="529.882812" xlink:href="#DejaVuSans-32"/>
      <use x="561.669922" xlink:href="#DejaVuSans-101"/>
      <use x="623.193359" xlink:href="#DejaVuSans-100"/>
      <use x="686.669922" xlink:href="#DejaVuSans-103"/>
      <use x="750.146484" xlink:href="#DejaVuSans-101"/>
      <use x="811.669922" xlink:href="#DejaVuSans-32"/>
      <use x="843.457031" xlink:href="#DejaVuSans-114"/>
      <use x="882.320312" xlink:href="#DejaVuSans-101"/>
      <use x="943.84375" xlink:href="#DejaVuSans-97"/>
      <use x="1005.123047" xlink:href="#DejaVuSans-99"/>
      <use x="1060.103516" xlink:href="#DejaVuSans-116"/>
      <use x="1099.3125" xlink:href="#DejaVuSans-105"/>
      <use x="1127.095703" xlink:href="#DejaVuSans-111"/>
      <use x="1188.277344" xlink:href="#DejaVuSans-110"/>
      <use x="1251.65625" xlink:href="#DejaVuSans-115"/>
     </g>
    </g>
   </g>
   <g id="line2d_37">
    <path clip-path="url(#p786dd92bf3)" d="M 73.832727 177.453249 
L 84.729214 176.711607 
L 90.935318 176.185279 
L 96.835301 175.45314 
L 101.993104 175.505254 
L 107.058184 175.45314 
L 111.912119 175.661765 
L 116.588128 172.831405 
L 121.068333 172.780694 
L 125.778151 171.371327 
L 130.053407 171.571427 
L 134.9018 169.490483 
L 139.299322 166.97386 
L 143.146689 166.73525 
L 147.667151 164.427128 
L 151.266121 164.566889 
L 155.052779 163.224145 
L 157.656052 163.270141 
L 161.302195 161.899559 
L 164.566785 160.547891 
L 167.839644 159.967911 
L 171.289322 156.859537 
L 174.895823 153.76324 
L 178.528059 151.045682 
L 184.379247 148.00701 
L 191.427187 145.327555 
L 198.211448 142.980897 
L 202.822736 137.915622 
L 208.871121 135.114878 
L 217.457901 129.808131 
L 220.916109 124.743129 
L 223.268744 124.155028 
L 226.68178 121.988122 
L 229.708842 119.426041 
L 234.428762 114.830682 
L 239.472769 111.628897 
L 244.258875 108.739168 
L 250.694462 107.014295 
L 256.395953 105.829825 
L 259.072143 103.278325 
L 262.241398 102.014764 
L 268.343047 99.727716 
L 271.058468 97.000467 
L 273.44412 94.369867 
L 276.158525 92.900995 
L 278.696713 89.897127 
L 283.409899 87.299874 
L 285.713679 85.266396 
L 288.566 85.3079 
L 290.853853 82.969802 
L 294.300242 80.153078 
L 298.867021 77.28114 
L 300.956688 75.819607 
L 302.73747 75.087588 
L 305.411796 73.033602 
L 307.958116 73.033602 
L 310.555406 73.033602 
L 312.725395 72.759311 
L 314.999127 72.759311 
L 317.877455 71.381252 
L 320.16443 71.381252 
L 322.189581 70.0756 
L 324.548924 70.0756 
L 326.119548 68.892387 
L 328.106219 67.914283 
L 330.244945 67.914283 
L 332.270346 67.914283 
L 335.420934 66.174524 
L 337.443689 66.174524 
L 339.353268 66.174524 
L 341.261461 66.174524 
L 343.119401 66.174524 
L 344.98565 66.174524 
L 346.710802 64.616244 
L 348.381129 63.713016 
L 349.922607 61.898477 
L 351.615436 58.351468 
L 353.606589 58.351468 
L 356.450095 56.061335 
L 358.378867 56.061335 
L 360.109277 56.061335 
L 361.827267 56.061335 
L 363.526649 56.061335 
L 365.178375 56.061335 
L 366.382746 54.68519 
L 368.151138 54.68519 
L 369.656182 54.68519 
L 371.212836 54.68519 
L 372.751714 54.68519 
L 374.230348 54.68519 
L 377.584378 53.568 
L 379.064366 53.568 
L 380.436984 53.568 
L 381.79693 53.568 
L 383.154575 53.568 
L 384.50934 53.568 
L 385.830256 53.568 
L 387.732684 269.598686 
L 388.248764 269.598686 
L 388.736641 269.598686 
L 389.229203 269.598686 
L 389.706747 269.598686 
L 390.224694 269.598686 
L 390.698066 269.598686 
L 391.195549 269.598686 
L 391.659585 269.598686 
L 392.161351 269.598686 
L 392.655622 269.598686 
L 393.117471 269.598686 
L 393.669769 295.488 
L 394.117888 295.488 
L 394.579543 295.488 
L 395.041077 295.488 
L 395.480629 295.488 
L 395.920406 295.488 
L 396.362532 295.488 
L 396.790923 295.488 
L 397.232493 295.488 
L 397.642851 295.488 
L 398.067753 295.488 
L 398.487273 295.488 
" style="fill:none;stroke:#ff0000;stroke-linecap:square;stroke-width:1.5;"/>
    <defs>
     <path d="M 0 3 
C 0.795609 3 1.55874 2.683901 2.12132 2.12132 
C 2.683901 1.55874 3 0.795609 3 0 
C 3 -0.795609 2.683901 -1.55874 2.12132 -2.12132 
C 1.55874 -2.683901 0.795609 -3 0 -3 
C -0.795609 -3 -1.55874 -2.683901 -2.12132 -2.12132 
C -2.683901 -1.55874 -3 -0.795609 -3 0 
C -3 0.795609 -2.683901 1.55874 -2.12132 2.12132 
C -1.55874 2.683901 -0.795609 3 0 3 
z
" id="mcec2a9a9d4" style="stroke:#ff0000;"/>
    </defs>
    <g clip-path="url(#p786dd92bf3)">
     <use style="fill:#ff0000;stroke:#ff0000;" x="73.832727" xlink:href="#mcec2a9a9d4" y="177.453249"/>
     <use style="fill:#ff0000;stroke:#ff0000;" x="84.729214" xlink:href="#mcec2a9a9d4" y="176.711607"/>
     <use style="fill:#ff0000;stroke:#ff0000;" x="90.935318" xlink:href="#mcec2a9a9d4" y="176.185279"/>
     <use style="fill:#ff0000;stroke:#ff0000;" x="96.835301" xlink:href="#mcec2a9a9d4" y="175.45314"/>
     <use style="fill:#ff0000;stroke:#ff0000;" x="101.993104" xlink:href="#mcec2a9a9d4" y="175.505254"/>
     <use style="fill:#ff0000;stroke:#ff0000;" x="107.058184" xlink:href="#mcec2a9a9d4" y="175.45314"/>
     <use style="fill:#ff0000;stroke:#ff0000;" x="111.912119" xlink:href="#mcec2a9a9d4" y="175.661765"/>
     <use style="fill:#ff0000;stroke:#ff0000;" x="116.588128" xlink:href="#mcec2a9a9d4" y="172.831405"/>
     <use style="fill:#ff0000;stroke:#ff0000;" x="121.068333" xlink:href="#mcec2a9a9d4" y="172.780694"/>
     <use style="fill:#ff0000;stroke:#ff0000;" x="125.778151" xlink:href="#mcec2a9a9d4" y="171.371327"/>
     <use style="fill:#ff0000;stroke:#ff0000;" x="130.053407" xlink:href="#mcec2a9a9d4" y="171.571427"/>
     <use style="fill:#ff0000;stroke:#ff0000;" x="134.9018" xlink:href="#mcec2a9a9d4" y="169.490483"/>
     <use style="fill:#ff0000;stroke:#ff0000;" x="139.299322" xlink:href="#mcec2a9a9d4" y="166.97386"/>
     <use style="fill:#ff0000;stroke:#ff0000;" x="143.146689" xlink:href="#mcec2a9a9d4" y="166.73525"/>
     <use style="fill:#ff0000;stroke:#ff0000;" x="147.667151" xlink:href="#mcec2a9a9d4" y="164.427128"/>
     <use style="fill:#ff0000;stroke:#ff0000;" x="151.266121" xlink:href="#mcec2a9a9d4" y="164.566889"/>
     <use style="fill:#ff0000;stroke:#ff0000;" x="155.052779" xlink:href="#mcec2a9a9d4" y="163.224145"/>
     <use style="fill:#ff0000;stroke:#ff0000;" x="157.656052" xlink:href="#mcec2a9a9d4" y="163.270141"/>
     <use style="fill:#ff0000;stroke:#ff0000;" x="161.302195" xlink:href="#mcec2a9a9d4" y="161.899559"/>
     <use style="fill:#ff0000;stroke:#ff0000;" x="164.566785" xlink:href="#mcec2a9a9d4" y="160.547891"/>
     <use style="fill:#ff0000;stroke:#ff0000;" x="167.839644" xlink:href="#mcec2a9a9d4" y="159.967911"/>
     <use style="fill:#ff0000;stroke:#ff0000;" x="171.289322" xlink:href="#mcec2a9a9d4" y="156.859537"/>
     <use style="fill:#ff0000;stroke:#ff0000;" x="174.895823" xlink:href="#mcec2a9a9d4" y="153.76324"/>
     <use style="fill:#ff0000;stroke:#ff0000;" x="178.528059" xlink:href="#mcec2a9a9d4" y="151.045682"/>
     <use style="fill:#ff0000;stroke:#ff0000;" x="184.379247" xlink:href="#mcec2a9a9d4" y="148.00701"/>
     <use style="fill:#ff0000;stroke:#ff0000;" x="191.427187" xlink:href="#mcec2a9a9d4" y="145.327555"/>
     <use style="fill:#ff0000;stroke:#ff0000;" x="198.211448" xlink:href="#mcec2a9a9d4" y="142.980897"/>
     <use style="fill:#ff0000;stroke:#ff0000;" x="202.822736" xlink:href="#mcec2a9a9d4" y="137.915622"/>
     <use style="fill:#ff0000;stroke:#ff0000;" x="208.871121" xlink:href="#mcec2a9a9d4" y="135.114878"/>
     <use style="fill:#ff0000;stroke:#ff0000;" x="217.457901" xlink:href="#mcec2a9a9d4" y="129.808131"/>
     <use style="fill:#ff0000;stroke:#ff0000;" x="220.916109" xlink:href="#mcec2a9a9d4" y="124.743129"/>
     <use style="fill:#ff0000;stroke:#ff0000;" x="223.268744" xlink:href="#mcec2a9a9d4" y="124.155028"/>
     <use style="fill:#ff0000;stroke:#ff0000;" x="226.68178" xlink:href="#mcec2a9a9d4" y="121.988122"/>
     <use style="fill:#ff0000;stroke:#ff0000;" x="229.708842" xlink:href="#mcec2a9a9d4" y="119.426041"/>
     <use style="fill:#ff0000;stroke:#ff0000;" x="234.428762" xlink:href="#mcec2a9a9d4" y="114.830682"/>
     <use style="fill:#ff0000;stroke:#ff0000;" x="239.472769" xlink:href="#mcec2a9a9d4" y="111.628897"/>
     <use style="fill:#ff0000;stroke:#ff0000;" x="244.258875" xlink:href="#mcec2a9a9d4" y="108.739168"/>
     <use style="fill:#ff0000;stroke:#ff0000;" x="250.694462" xlink:href="#mcec2a9a9d4" y="107.014295"/>
     <use style="fill:#ff0000;stroke:#ff0000;" x="256.395953" xlink:href="#mcec2a9a9d4" y="105.829825"/>
     <use style="fill:#ff0000;stroke:#ff0000;" x="259.072143" xlink:href="#mcec2a9a9d4" y="103.278325"/>
     <use style="fill:#ff0000;stroke:#ff0000;" x="262.241398" xlink:href="#mcec2a9a9d4" y="102.014764"/>
     <use style="fill:#ff0000;stroke:#ff0000;" x="268.343047" xlink:href="#mcec2a9a9d4" y="99.727716"/>
     <use style="fill:#ff0000;stroke:#ff0000;" x="271.058468" xlink:href="#mcec2a9a9d4" y="97.000467"/>
     <use style="fill:#ff0000;stroke:#ff0000;" x="273.44412" xlink:href="#mcec2a9a9d4" y="94.369867"/>
     <use style="fill:#ff0000;stroke:#ff0000;" x="276.158525" xlink:href="#mcec2a9a9d4" y="92.900995"/>
     <use style="fill:#ff0000;stroke:#ff0000;" x="278.696713" xlink:href="#mcec2a9a9d4" y="89.897127"/>
     <use style="fill:#ff0000;stroke:#ff0000;" x="283.409899" xlink:href="#mcec2a9a9d4" y="87.299874"/>
     <use style="fill:#ff0000;stroke:#ff0000;" x="285.713679" xlink:href="#mcec2a9a9d4" y="85.266396"/>
     <use style="fill:#ff0000;stroke:#ff0000;" x="288.566" xlink:href="#mcec2a9a9d4" y="85.3079"/>
     <use style="fill:#ff0000;stroke:#ff0000;" x="290.853853" xlink:href="#mcec2a9a9d4" y="82.969802"/>
     <use style="fill:#ff0000;stroke:#ff0000;" x="294.300242" xlink:href="#mcec2a9a9d4" y="80.153078"/>
     <use style="fill:#ff0000;stroke:#ff0000;" x="298.867021" xlink:href="#mcec2a9a9d4" y="77.28114"/>
     <use style="fill:#ff0000;stroke:#ff0000;" x="300.956688" xlink:href="#mcec2a9a9d4" y="75.819607"/>
     <use style="fill:#ff0000;stroke:#ff0000;" x="302.73747" xlink:href="#mcec2a9a9d4" y="75.087588"/>
     <use style="fill:#ff0000;stroke:#ff0000;" x="305.411796" xlink:href="#mcec2a9a9d4" y="73.033602"/>
     <use style="fill:#ff0000;stroke:#ff0000;" x="307.958116" xlink:href="#mcec2a9a9d4" y="73.033602"/>
     <use style="fill:#ff0000;stroke:#ff0000;" x="310.555406" xlink:href="#mcec2a9a9d4" y="73.033602"/>
     <use style="fill:#ff0000;stroke:#ff0000;" x="312.725395" xlink:href="#mcec2a9a9d4" y="72.759311"/>
     <use style="fill:#ff0000;stroke:#ff0000;" x="314.999127" xlink:href="#mcec2a9a9d4" y="72.759311"/>
     <use style="fill:#ff0000;stroke:#ff0000;" x="317.877455" xlink:href="#mcec2a9a9d4" y="71.381252"/>
     <use style="fill:#ff0000;stroke:#ff0000;" x="320.16443" xlink:href="#mcec2a9a9d4" y="71.381252"/>
     <use style="fill:#ff0000;stroke:#ff0000;" x="322.189581" xlink:href="#mcec2a9a9d4" y="70.0756"/>
     <use style="fill:#ff0000;stroke:#ff0000;" x="324.548924" xlink:href="#mcec2a9a9d4" y="70.0756"/>
     <use style="fill:#ff0000;stroke:#ff0000;" x="326.119548" xlink:href="#mcec2a9a9d4" y="68.892387"/>
     <use style="fill:#ff0000;stroke:#ff0000;" x="328.106219" xlink:href="#mcec2a9a9d4" y="67.914283"/>
     <use style="fill:#ff0000;stroke:#ff0000;" x="330.244945" xlink:href="#mcec2a9a9d4" y="67.914283"/>
     <use style="fill:#ff0000;stroke:#ff0000;" x="332.270346" xlink:href="#mcec2a9a9d4" y="67.914283"/>
     <use style="fill:#ff0000;stroke:#ff0000;" x="335.420934" xlink:href="#mcec2a9a9d4" y="66.174524"/>
     <use style="fill:#ff0000;stroke:#ff0000;" x="337.443689" xlink:href="#mcec2a9a9d4" y="66.174524"/>
     <use style="fill:#ff0000;stroke:#ff0000;" x="339.353268" xlink:href="#mcec2a9a9d4" y="66.174524"/>
     <use style="fill:#ff0000;stroke:#ff0000;" x="341.261461" xlink:href="#mcec2a9a9d4" y="66.174524"/>
     <use style="fill:#ff0000;stroke:#ff0000;" x="343.119401" xlink:href="#mcec2a9a9d4" y="66.174524"/>
     <use style="fill:#ff0000;stroke:#ff0000;" x="344.98565" xlink:href="#mcec2a9a9d4" y="66.174524"/>
     <use style="fill:#ff0000;stroke:#ff0000;" x="346.710802" xlink:href="#mcec2a9a9d4" y="64.616244"/>
     <use style="fill:#ff0000;stroke:#ff0000;" x="348.381129" xlink:href="#mcec2a9a9d4" y="63.713016"/>
     <use style="fill:#ff0000;stroke:#ff0000;" x="349.922607" xlink:href="#mcec2a9a9d4" y="61.898477"/>
     <use style="fill:#ff0000;stroke:#ff0000;" x="351.615436" xlink:href="#mcec2a9a9d4" y="58.351468"/>
     <use style="fill:#ff0000;stroke:#ff0000;" x="353.606589" xlink:href="#mcec2a9a9d4" y="58.351468"/>
     <use style="fill:#ff0000;stroke:#ff0000;" x="356.450095" xlink:href="#mcec2a9a9d4" y="56.061335"/>
     <use style="fill:#ff0000;stroke:#ff0000;" x="358.378867" xlink:href="#mcec2a9a9d4" y="56.061335"/>
     <use style="fill:#ff0000;stroke:#ff0000;" x="360.109277" xlink:href="#mcec2a9a9d4" y="56.061335"/>
     <use style="fill:#ff0000;stroke:#ff0000;" x="361.827267" xlink:href="#mcec2a9a9d4" y="56.061335"/>
     <use style="fill:#ff0000;stroke:#ff0000;" x="363.526649" xlink:href="#mcec2a9a9d4" y="56.061335"/>
     <use style="fill:#ff0000;stroke:#ff0000;" x="365.178375" xlink:href="#mcec2a9a9d4" y="56.061335"/>
     <use style="fill:#ff0000;stroke:#ff0000;" x="366.382746" xlink:href="#mcec2a9a9d4" y="54.68519"/>
     <use style="fill:#ff0000;stroke:#ff0000;" x="368.151138" xlink:href="#mcec2a9a9d4" y="54.68519"/>
     <use style="fill:#ff0000;stroke:#ff0000;" x="369.656182" xlink:href="#mcec2a9a9d4" y="54.68519"/>
     <use style="fill:#ff0000;stroke:#ff0000;" x="371.212836" xlink:href="#mcec2a9a9d4" y="54.68519"/>
     <use style="fill:#ff0000;stroke:#ff0000;" x="372.751714" xlink:href="#mcec2a9a9d4" y="54.68519"/>
     <use style="fill:#ff0000;stroke:#ff0000;" x="374.230348" xlink:href="#mcec2a9a9d4" y="54.68519"/>
     <use style="fill:#ff0000;stroke:#ff0000;" x="377.584378" xlink:href="#mcec2a9a9d4" y="53.568"/>
     <use style="fill:#ff0000;stroke:#ff0000;" x="379.064366" xlink:href="#mcec2a9a9d4" y="53.568"/>
     <use style="fill:#ff0000;stroke:#ff0000;" x="380.436984" xlink:href="#mcec2a9a9d4" y="53.568"/>
     <use style="fill:#ff0000;stroke:#ff0000;" x="381.79693" xlink:href="#mcec2a9a9d4" y="53.568"/>
     <use style="fill:#ff0000;stroke:#ff0000;" x="383.154575" xlink:href="#mcec2a9a9d4" y="53.568"/>
     <use style="fill:#ff0000;stroke:#ff0000;" x="384.50934" xlink:href="#mcec2a9a9d4" y="53.568"/>
     <use style="fill:#ff0000;stroke:#ff0000;" x="385.830256" xlink:href="#mcec2a9a9d4" y="53.568"/>
     <use style="fill:#ff0000;stroke:#ff0000;" x="387.732684" xlink:href="#mcec2a9a9d4" y="269.598686"/>
     <use style="fill:#ff0000;stroke:#ff0000;" x="388.248764" xlink:href="#mcec2a9a9d4" y="269.598686"/>
     <use style="fill:#ff0000;stroke:#ff0000;" x="388.736641" xlink:href="#mcec2a9a9d4" y="269.598686"/>
     <use style="fill:#ff0000;stroke:#ff0000;" x="389.229203" xlink:href="#mcec2a9a9d4" y="269.598686"/>
     <use style="fill:#ff0000;stroke:#ff0000;" x="389.706747" xlink:href="#mcec2a9a9d4" y="269.598686"/>
     <use style="fill:#ff0000;stroke:#ff0000;" x="390.224694" xlink:href="#mcec2a9a9d4" y="269.598686"/>
     <use style="fill:#ff0000;stroke:#ff0000;" x="390.698066" xlink:href="#mcec2a9a9d4" y="269.598686"/>
     <use style="fill:#ff0000;stroke:#ff0000;" x="391.195549" xlink:href="#mcec2a9a9d4" y="269.598686"/>
     <use style="fill:#ff0000;stroke:#ff0000;" x="391.659585" xlink:href="#mcec2a9a9d4" y="269.598686"/>
     <use style="fill:#ff0000;stroke:#ff0000;" x="392.161351" xlink:href="#mcec2a9a9d4" y="269.598686"/>
     <use style="fill:#ff0000;stroke:#ff0000;" x="392.655622" xlink:href="#mcec2a9a9d4" y="269.598686"/>
     <use style="fill:#ff0000;stroke:#ff0000;" x="393.117471" xlink:href="#mcec2a9a9d4" y="269.598686"/>
     <use style="fill:#ff0000;stroke:#ff0000;" x="393.669769" xlink:href="#mcec2a9a9d4" y="295.488"/>
     <use style="fill:#ff0000;stroke:#ff0000;" x="394.117888" xlink:href="#mcec2a9a9d4" y="295.488"/>
     <use style="fill:#ff0000;stroke:#ff0000;" x="394.579543" xlink:href="#mcec2a9a9d4" y="295.488"/>
     <use style="fill:#ff0000;stroke:#ff0000;" x="395.041077" xlink:href="#mcec2a9a9d4" y="295.488"/>
     <use style="fill:#ff0000;stroke:#ff0000;" x="395.480629" xlink:href="#mcec2a9a9d4" y="295.488"/>
     <use style="fill:#ff0000;stroke:#ff0000;" x="395.920406" xlink:href="#mcec2a9a9d4" y="295.488"/>
     <use style="fill:#ff0000;stroke:#ff0000;" x="396.362532" xlink:href="#mcec2a9a9d4" y="295.488"/>
     <use style="fill:#ff0000;stroke:#ff0000;" x="396.790923" xlink:href="#mcec2a9a9d4" y="295.488"/>
     <use style="fill:#ff0000;stroke:#ff0000;" x="397.232493" xlink:href="#mcec2a9a9d4" y="295.488"/>
     <use style="fill:#ff0000;stroke:#ff0000;" x="397.642851" xlink:href="#mcec2a9a9d4" y="295.488"/>
     <use style="fill:#ff0000;stroke:#ff0000;" x="398.067753" xlink:href="#mcec2a9a9d4" y="295.488"/>
     <use style="fill:#ff0000;stroke:#ff0000;" x="398.487273" xlink:href="#mcec2a9a9d4" y="295.488"/>
    </g>
   </g>
   <g id="patch_7">
    <path d="M 57.6 307.584 
L 57.6 41.472 
" style="fill:none;stroke:#000000;stroke-linecap:square;stroke-linejoin:miter;stroke-width:0.8;"/>
   </g>
   <g id="patch_8">
    <path d="M 414.72 307.584 
L 414.72 41.472 
" style="fill:none;stroke:#000000;stroke-linecap:square;stroke-linejoin:miter;stroke-width:0.8;"/>
   </g>
   <g id="patch_9">
    <path d="M 57.6 307.584 
L 414.72 307.584 
" style="fill:none;stroke:#000000;stroke-linecap:square;stroke-linejoin:miter;stroke-width:0.8;"/>
   </g>
   <g id="patch_10">
    <path d="M 57.6 41.472 
L 414.72 41.472 
" style="fill:none;stroke:#000000;stroke-linecap:square;stroke-linejoin:miter;stroke-width:0.8;"/>
   </g>
  </g>
 </g>
 <defs>
  <clipPath id="p786dd92bf3">
   <rect height="266.112" width="357.12" x="57.6" y="41.472"/>
  </clipPath>
 </defs>
</svg>
