<?xml version="1.0" encoding="utf-8" standalone="no"?>
<!DOCTYPE svg PUBLIC "-//W3C//DTD SVG 1.1//EN"
  "http://www.w3.org/Graphics/SVG/1.1/DTD/svg11.dtd">
<!-- Created with matplotlib (https://matplotlib.org/) -->
<svg height="345.6pt" version="1.1" viewBox="0 0 460.8 345.6" width="460.8pt" xmlns="http://www.w3.org/2000/svg" xmlns:xlink="http://www.w3.org/1999/xlink">
 <metadata>
  <rdf:RDF xmlns:cc="http://creativecommons.org/ns#" xmlns:dc="http://purl.org/dc/elements/1.1/" xmlns:rdf="http://www.w3.org/1999/02/22-rdf-syntax-ns#">
   <cc:Work>
    <dc:type rdf:resource="http://purl.org/dc/dcmitype/StillImage"/>
    <dc:date>2021-06-10T23:02:55.322308</dc:date>
    <dc:format>image/svg+xml</dc:format>
    <dc:creator>
     <cc:Agent>
      <dc:title>Matplotlib v3.3.1, https://matplotlib.org/</dc:title>
     </cc:Agent>
    </dc:creator>
   </cc:Work>
  </rdf:RDF>
 </metadata>
 <defs>
  <style type="text/css">*{stroke-linecap:butt;stroke-linejoin:round;}</style>
 </defs>
 <g id="figure_1">
  <g id="patch_1">
   <path d="M 0 345.6 
L 460.8 345.6 
L 460.8 0 
L 0 0 
z
" style="fill:#ffffff;"/>
  </g>
  <g id="axes_1">
   <g id="patch_2">
    <path d="M 57.6 307.584 
L 414.72 307.584 
L 414.72 41.472 
L 57.6 41.472 
z
" style="fill:#ffffff;"/>
   </g>
   <g id="matplotlib.axis_1">
    <g id="xtick_1">
     <g id="line2d_1">
      <defs>
       <path d="M 0 0 
L 0 3.5 
" id="m9b65925f63" style="stroke:#000000;stroke-width:0.8;"/>
      </defs>
      <g>
       <use style="stroke:#000000;stroke-width:0.8;" x="90.424496" xlink:href="#m9b65925f63" y="307.584"/>
      </g>
     </g>
     <g id="text_1">
      <!-- $\mathdefault{10^{2}}$ -->
      <g transform="translate(81.624496 322.182437)scale(0.1 -0.1)">
       <defs>
        <path d="M 12.40625 8.296875 
L 28.515625 8.296875 
L 28.515625 63.921875 
L 10.984375 60.40625 
L 10.984375 69.390625 
L 28.421875 72.90625 
L 38.28125 72.90625 
L 38.28125 8.296875 
L 54.390625 8.296875 
L 54.390625 0 
L 12.40625 0 
z
" id="DejaVuSans-49"/>
        <path d="M 31.78125 66.40625 
Q 24.171875 66.40625 20.328125 58.90625 
Q 16.5 51.421875 16.5 36.375 
Q 16.5 21.390625 20.328125 13.890625 
Q 24.171875 6.390625 31.78125 6.390625 
Q 39.453125 6.390625 43.28125 13.890625 
Q 47.125 21.390625 47.125 36.375 
Q 47.125 51.421875 43.28125 58.90625 
Q 39.453125 66.40625 31.78125 66.40625 
z
M 31.78125 74.21875 
Q 44.046875 74.21875 50.515625 64.515625 
Q 56.984375 54.828125 56.984375 36.375 
Q 56.984375 17.96875 50.515625 8.265625 
Q 44.046875 -1.421875 31.78125 -1.421875 
Q 19.53125 -1.421875 13.0625 8.265625 
Q 6.59375 17.96875 6.59375 36.375 
Q 6.59375 54.828125 13.0625 64.515625 
Q 19.53125 74.21875 31.78125 74.21875 
z
" id="DejaVuSans-48"/>
        <path d="M 19.1875 8.296875 
L 53.609375 8.296875 
L 53.609375 0 
L 7.328125 0 
L 7.328125 8.296875 
Q 12.9375 14.109375 22.625 23.890625 
Q 32.328125 33.6875 34.8125 36.53125 
Q 39.546875 41.84375 41.421875 45.53125 
Q 43.3125 49.21875 43.3125 52.78125 
Q 43.3125 58.59375 39.234375 62.25 
Q 35.15625 65.921875 28.609375 65.921875 
Q 23.96875 65.921875 18.8125 64.3125 
Q 13.671875 62.703125 7.8125 59.421875 
L 7.8125 69.390625 
Q 13.765625 71.78125 18.9375 73 
Q 24.125 74.21875 28.421875 74.21875 
Q 39.75 74.21875 46.484375 68.546875 
Q 53.21875 62.890625 53.21875 53.421875 
Q 53.21875 48.921875 51.53125 44.890625 
Q 49.859375 40.875 45.40625 35.40625 
Q 44.1875 33.984375 37.640625 27.21875 
Q 31.109375 20.453125 19.1875 8.296875 
z
" id="DejaVuSans-50"/>
       </defs>
       <use transform="translate(0 0.765625)" xlink:href="#DejaVuSans-49"/>
       <use transform="translate(63.623047 0.765625)" xlink:href="#DejaVuSans-48"/>
       <use transform="translate(128.203125 39.046875)scale(0.7)" xlink:href="#DejaVuSans-50"/>
      </g>
     </g>
    </g>
    <g id="xtick_2">
     <g id="line2d_2">
      <g>
       <use style="stroke:#000000;stroke-width:0.8;" x="301.164687" xlink:href="#m9b65925f63" y="307.584"/>
      </g>
     </g>
     <g id="text_2">
      <!-- $\mathdefault{10^{3}}$ -->
      <g transform="translate(292.364687 322.182437)scale(0.1 -0.1)">
       <defs>
        <path d="M 40.578125 39.3125 
Q 47.65625 37.796875 51.625 33 
Q 55.609375 28.21875 55.609375 21.1875 
Q 55.609375 10.40625 48.1875 4.484375 
Q 40.765625 -1.421875 27.09375 -1.421875 
Q 22.515625 -1.421875 17.65625 -0.515625 
Q 12.796875 0.390625 7.625 2.203125 
L 7.625 11.71875 
Q 11.71875 9.328125 16.59375 8.109375 
Q 21.484375 6.890625 26.8125 6.890625 
Q 36.078125 6.890625 40.9375 10.546875 
Q 45.796875 14.203125 45.796875 21.1875 
Q 45.796875 27.640625 41.28125 31.265625 
Q 36.765625 34.90625 28.71875 34.90625 
L 20.21875 34.90625 
L 20.21875 43.015625 
L 29.109375 43.015625 
Q 36.375 43.015625 40.234375 45.921875 
Q 44.09375 48.828125 44.09375 54.296875 
Q 44.09375 59.90625 40.109375 62.90625 
Q 36.140625 65.921875 28.71875 65.921875 
Q 24.65625 65.921875 20.015625 65.03125 
Q 15.375 64.15625 9.8125 62.3125 
L 9.8125 71.09375 
Q 15.4375 72.65625 20.34375 73.4375 
Q 25.25 74.21875 29.59375 74.21875 
Q 40.828125 74.21875 47.359375 69.109375 
Q 53.90625 64.015625 53.90625 55.328125 
Q 53.90625 49.265625 50.4375 45.09375 
Q 46.96875 40.921875 40.578125 39.3125 
z
" id="DejaVuSans-51"/>
       </defs>
       <use transform="translate(0 0.765625)" xlink:href="#DejaVuSans-49"/>
       <use transform="translate(63.623047 0.765625)" xlink:href="#DejaVuSans-48"/>
       <use transform="translate(128.203125 39.046875)scale(0.7)" xlink:href="#DejaVuSans-51"/>
      </g>
     </g>
    </g>
    <g id="xtick_3">
     <g id="line2d_3">
      <defs>
       <path d="M 0 0 
L 0 2 
" id="me422593246" style="stroke:#000000;stroke-width:0.6;"/>
      </defs>
      <g>
       <use style="stroke:#000000;stroke-width:0.6;" x="57.780427" xlink:href="#me422593246" y="307.584"/>
      </g>
     </g>
    </g>
    <g id="xtick_4">
     <g id="line2d_4">
      <g>
       <use style="stroke:#000000;stroke-width:0.6;" x="70.001661" xlink:href="#me422593246" y="307.584"/>
      </g>
     </g>
    </g>
    <g id="xtick_5">
     <g id="line2d_5">
      <g>
       <use style="stroke:#000000;stroke-width:0.6;" x="80.781554" xlink:href="#me422593246" y="307.584"/>
      </g>
     </g>
    </g>
    <g id="xtick_6">
     <g id="line2d_6">
      <g>
       <use style="stroke:#000000;stroke-width:0.6;" x="153.863615" xlink:href="#me422593246" y="307.584"/>
      </g>
     </g>
    </g>
    <g id="xtick_7">
     <g id="line2d_7">
      <g>
       <use style="stroke:#000000;stroke-width:0.6;" x="190.97312" xlink:href="#me422593246" y="307.584"/>
      </g>
     </g>
    </g>
    <g id="xtick_8">
     <g id="line2d_8">
      <g>
       <use style="stroke:#000000;stroke-width:0.6;" x="217.302734" xlink:href="#me422593246" y="307.584"/>
      </g>
     </g>
    </g>
    <g id="xtick_9">
     <g id="line2d_9">
      <g>
       <use style="stroke:#000000;stroke-width:0.6;" x="237.725568" xlink:href="#me422593246" y="307.584"/>
      </g>
     </g>
    </g>
    <g id="xtick_10">
     <g id="line2d_10">
      <g>
       <use style="stroke:#000000;stroke-width:0.6;" x="254.412239" xlink:href="#me422593246" y="307.584"/>
      </g>
     </g>
    </g>
    <g id="xtick_11">
     <g id="line2d_11">
      <g>
       <use style="stroke:#000000;stroke-width:0.6;" x="268.520619" xlink:href="#me422593246" y="307.584"/>
      </g>
     </g>
    </g>
    <g id="xtick_12">
     <g id="line2d_12">
      <g>
       <use style="stroke:#000000;stroke-width:0.6;" x="280.741853" xlink:href="#me422593246" y="307.584"/>
      </g>
     </g>
    </g>
    <g id="xtick_13">
     <g id="line2d_13">
      <g>
       <use style="stroke:#000000;stroke-width:0.6;" x="291.521745" xlink:href="#me422593246" y="307.584"/>
      </g>
     </g>
    </g>
    <g id="xtick_14">
     <g id="line2d_14">
      <g>
       <use style="stroke:#000000;stroke-width:0.6;" x="364.603806" xlink:href="#me422593246" y="307.584"/>
      </g>
     </g>
    </g>
    <g id="xtick_15">
     <g id="line2d_15">
      <g>
       <use style="stroke:#000000;stroke-width:0.6;" x="401.713312" xlink:href="#me422593246" y="307.584"/>
      </g>
     </g>
    </g>
    <g id="text_3">
     <!-- Execution time (s) -->
     <g transform="translate(190.645156 335.860562)scale(0.1 -0.1)">
      <defs>
       <path d="M 9.8125 72.90625 
L 55.90625 72.90625 
L 55.90625 64.59375 
L 19.671875 64.59375 
L 19.671875 43.015625 
L 54.390625 43.015625 
L 54.390625 34.71875 
L 19.671875 34.71875 
L 19.671875 8.296875 
L 56.78125 8.296875 
L 56.78125 0 
L 9.8125 0 
z
" id="DejaVuSans-69"/>
       <path d="M 54.890625 54.6875 
L 35.109375 28.078125 
L 55.90625 0 
L 45.3125 0 
L 29.390625 21.484375 
L 13.484375 0 
L 2.875 0 
L 24.125 28.609375 
L 4.6875 54.6875 
L 15.28125 54.6875 
L 29.78125 35.203125 
L 44.28125 54.6875 
z
" id="DejaVuSans-120"/>
       <path d="M 56.203125 29.59375 
L 56.203125 25.203125 
L 14.890625 25.203125 
Q 15.484375 15.921875 20.484375 11.0625 
Q 25.484375 6.203125 34.421875 6.203125 
Q 39.59375 6.203125 44.453125 7.46875 
Q 49.3125 8.734375 54.109375 11.28125 
L 54.109375 2.78125 
Q 49.265625 0.734375 44.1875 -0.34375 
Q 39.109375 -1.421875 33.890625 -1.421875 
Q 20.796875 -1.421875 13.15625 6.1875 
Q 5.515625 13.8125 5.515625 26.8125 
Q 5.515625 40.234375 12.765625 48.109375 
Q 20.015625 56 32.328125 56 
Q 43.359375 56 49.78125 48.890625 
Q 56.203125 41.796875 56.203125 29.59375 
z
M 47.21875 32.234375 
Q 47.125 39.59375 43.09375 43.984375 
Q 39.0625 48.390625 32.421875 48.390625 
Q 24.90625 48.390625 20.390625 44.140625 
Q 15.875 39.890625 15.1875 32.171875 
z
" id="DejaVuSans-101"/>
       <path d="M 48.78125 52.59375 
L 48.78125 44.1875 
Q 44.96875 46.296875 41.140625 47.34375 
Q 37.3125 48.390625 33.40625 48.390625 
Q 24.65625 48.390625 19.8125 42.84375 
Q 14.984375 37.3125 14.984375 27.296875 
Q 14.984375 17.28125 19.8125 11.734375 
Q 24.65625 6.203125 33.40625 6.203125 
Q 37.3125 6.203125 41.140625 7.25 
Q 44.96875 8.296875 48.78125 10.40625 
L 48.78125 2.09375 
Q 45.015625 0.34375 40.984375 -0.53125 
Q 36.96875 -1.421875 32.421875 -1.421875 
Q 20.0625 -1.421875 12.78125 6.34375 
Q 5.515625 14.109375 5.515625 27.296875 
Q 5.515625 40.671875 12.859375 48.328125 
Q 20.21875 56 33.015625 56 
Q 37.15625 56 41.109375 55.140625 
Q 45.0625 54.296875 48.78125 52.59375 
z
" id="DejaVuSans-99"/>
       <path d="M 8.5 21.578125 
L 8.5 54.6875 
L 17.484375 54.6875 
L 17.484375 21.921875 
Q 17.484375 14.15625 20.5 10.265625 
Q 23.53125 6.390625 29.59375 6.390625 
Q 36.859375 6.390625 41.078125 11.03125 
Q 45.3125 15.671875 45.3125 23.6875 
L 45.3125 54.6875 
L 54.296875 54.6875 
L 54.296875 0 
L 45.3125 0 
L 45.3125 8.40625 
Q 42.046875 3.421875 37.71875 1 
Q 33.40625 -1.421875 27.6875 -1.421875 
Q 18.265625 -1.421875 13.375 4.4375 
Q 8.5 10.296875 8.5 21.578125 
z
M 31.109375 56 
z
" id="DejaVuSans-117"/>
       <path d="M 18.3125 70.21875 
L 18.3125 54.6875 
L 36.8125 54.6875 
L 36.8125 47.703125 
L 18.3125 47.703125 
L 18.3125 18.015625 
Q 18.3125 11.328125 20.140625 9.421875 
Q 21.96875 7.515625 27.59375 7.515625 
L 36.8125 7.515625 
L 36.8125 0 
L 27.59375 0 
Q 17.1875 0 13.234375 3.875 
Q 9.28125 7.765625 9.28125 18.015625 
L 9.28125 47.703125 
L 2.6875 47.703125 
L 2.6875 54.6875 
L 9.28125 54.6875 
L 9.28125 70.21875 
z
" id="DejaVuSans-116"/>
       <path d="M 9.421875 54.6875 
L 18.40625 54.6875 
L 18.40625 0 
L 9.421875 0 
z
M 9.421875 75.984375 
L 18.40625 75.984375 
L 18.40625 64.59375 
L 9.421875 64.59375 
z
" id="DejaVuSans-105"/>
       <path d="M 30.609375 48.390625 
Q 23.390625 48.390625 19.1875 42.75 
Q 14.984375 37.109375 14.984375 27.296875 
Q 14.984375 17.484375 19.15625 11.84375 
Q 23.34375 6.203125 30.609375 6.203125 
Q 37.796875 6.203125 41.984375 11.859375 
Q 46.1875 17.53125 46.1875 27.296875 
Q 46.1875 37.015625 41.984375 42.703125 
Q 37.796875 48.390625 30.609375 48.390625 
z
M 30.609375 56 
Q 42.328125 56 49.015625 48.375 
Q 55.71875 40.765625 55.71875 27.296875 
Q 55.71875 13.875 49.015625 6.21875 
Q 42.328125 -1.421875 30.609375 -1.421875 
Q 18.84375 -1.421875 12.171875 6.21875 
Q 5.515625 13.875 5.515625 27.296875 
Q 5.515625 40.765625 12.171875 48.375 
Q 18.84375 56 30.609375 56 
z
" id="DejaVuSans-111"/>
       <path d="M 54.890625 33.015625 
L 54.890625 0 
L 45.90625 0 
L 45.90625 32.71875 
Q 45.90625 40.484375 42.875 44.328125 
Q 39.84375 48.1875 33.796875 48.1875 
Q 26.515625 48.1875 22.3125 43.546875 
Q 18.109375 38.921875 18.109375 30.90625 
L 18.109375 0 
L 9.078125 0 
L 9.078125 54.6875 
L 18.109375 54.6875 
L 18.109375 46.1875 
Q 21.34375 51.125 25.703125 53.5625 
Q 30.078125 56 35.796875 56 
Q 45.21875 56 50.046875 50.171875 
Q 54.890625 44.34375 54.890625 33.015625 
z
" id="DejaVuSans-110"/>
       <path id="DejaVuSans-32"/>
       <path d="M 52 44.1875 
Q 55.375 50.25 60.0625 53.125 
Q 64.75 56 71.09375 56 
Q 79.640625 56 84.28125 50.015625 
Q 88.921875 44.046875 88.921875 33.015625 
L 88.921875 0 
L 79.890625 0 
L 79.890625 32.71875 
Q 79.890625 40.578125 77.09375 44.375 
Q 74.3125 48.1875 68.609375 48.1875 
Q 61.625 48.1875 57.5625 43.546875 
Q 53.515625 38.921875 53.515625 30.90625 
L 53.515625 0 
L 44.484375 0 
L 44.484375 32.71875 
Q 44.484375 40.625 41.703125 44.40625 
Q 38.921875 48.1875 33.109375 48.1875 
Q 26.21875 48.1875 22.15625 43.53125 
Q 18.109375 38.875 18.109375 30.90625 
L 18.109375 0 
L 9.078125 0 
L 9.078125 54.6875 
L 18.109375 54.6875 
L 18.109375 46.1875 
Q 21.1875 51.21875 25.484375 53.609375 
Q 29.78125 56 35.6875 56 
Q 41.65625 56 45.828125 52.96875 
Q 50 49.953125 52 44.1875 
z
" id="DejaVuSans-109"/>
       <path d="M 31 75.875 
Q 24.46875 64.65625 21.28125 53.65625 
Q 18.109375 42.671875 18.109375 31.390625 
Q 18.109375 20.125 21.3125 9.0625 
Q 24.515625 -2 31 -13.1875 
L 23.1875 -13.1875 
Q 15.875 -1.703125 12.234375 9.375 
Q 8.59375 20.453125 8.59375 31.390625 
Q 8.59375 42.28125 12.203125 53.3125 
Q 15.828125 64.359375 23.1875 75.875 
z
" id="DejaVuSans-40"/>
       <path d="M 44.28125 53.078125 
L 44.28125 44.578125 
Q 40.484375 46.53125 36.375 47.5 
Q 32.28125 48.484375 27.875 48.484375 
Q 21.1875 48.484375 17.84375 46.4375 
Q 14.5 44.390625 14.5 40.28125 
Q 14.5 37.15625 16.890625 35.375 
Q 19.28125 33.59375 26.515625 31.984375 
L 29.59375 31.296875 
Q 39.15625 29.25 43.1875 25.515625 
Q 47.21875 21.78125 47.21875 15.09375 
Q 47.21875 7.46875 41.1875 3.015625 
Q 35.15625 -1.421875 24.609375 -1.421875 
Q 20.21875 -1.421875 15.453125 -0.5625 
Q 10.6875 0.296875 5.421875 2 
L 5.421875 11.28125 
Q 10.40625 8.6875 15.234375 7.390625 
Q 20.0625 6.109375 24.8125 6.109375 
Q 31.15625 6.109375 34.5625 8.28125 
Q 37.984375 10.453125 37.984375 14.40625 
Q 37.984375 18.0625 35.515625 20.015625 
Q 33.0625 21.96875 24.703125 23.78125 
L 21.578125 24.515625 
Q 13.234375 26.265625 9.515625 29.90625 
Q 5.8125 33.546875 5.8125 39.890625 
Q 5.8125 47.609375 11.28125 51.796875 
Q 16.75 56 26.8125 56 
Q 31.78125 56 36.171875 55.265625 
Q 40.578125 54.546875 44.28125 53.078125 
z
" id="DejaVuSans-115"/>
       <path d="M 8.015625 75.875 
L 15.828125 75.875 
Q 23.140625 64.359375 26.78125 53.3125 
Q 30.421875 42.28125 30.421875 31.390625 
Q 30.421875 20.453125 26.78125 9.375 
Q 23.140625 -1.703125 15.828125 -13.1875 
L 8.015625 -13.1875 
Q 14.5 -2 17.703125 9.0625 
Q 20.90625 20.125 20.90625 31.390625 
Q 20.90625 42.671875 17.703125 53.65625 
Q 14.5 64.65625 8.015625 75.875 
z
" id="DejaVuSans-41"/>
      </defs>
      <use xlink:href="#DejaVuSans-69"/>
      <use x="63.183594" xlink:href="#DejaVuSans-120"/>
      <use x="119.238281" xlink:href="#DejaVuSans-101"/>
      <use x="180.761719" xlink:href="#DejaVuSans-99"/>
      <use x="235.742188" xlink:href="#DejaVuSans-117"/>
      <use x="299.121094" xlink:href="#DejaVuSans-116"/>
      <use x="338.330078" xlink:href="#DejaVuSans-105"/>
      <use x="366.113281" xlink:href="#DejaVuSans-111"/>
      <use x="427.294922" xlink:href="#DejaVuSans-110"/>
      <use x="490.673828" xlink:href="#DejaVuSans-32"/>
      <use x="522.460938" xlink:href="#DejaVuSans-116"/>
      <use x="561.669922" xlink:href="#DejaVuSans-105"/>
      <use x="589.453125" xlink:href="#DejaVuSans-109"/>
      <use x="686.865234" xlink:href="#DejaVuSans-101"/>
      <use x="748.388672" xlink:href="#DejaVuSans-32"/>
      <use x="780.175781" xlink:href="#DejaVuSans-40"/>
      <use x="819.189453" xlink:href="#DejaVuSans-115"/>
      <use x="871.289062" xlink:href="#DejaVuSans-41"/>
     </g>
    </g>
   </g>
   <g id="matplotlib.axis_2">
    <g id="ytick_1">
     <g id="line2d_16">
      <defs>
       <path d="M 0 0 
L -3.5 0 
" id="mb57533e559" style="stroke:#000000;stroke-width:0.8;"/>
      </defs>
      <g>
       <use style="stroke:#000000;stroke-width:0.8;" x="57.6" xlink:href="#mb57533e559" y="284.198018"/>
      </g>
     </g>
     <g id="text_4">
      <!-- 800 -->
      <g transform="translate(31.5125 287.997237)scale(0.1 -0.1)">
       <defs>
        <path d="M 31.78125 34.625 
Q 24.75 34.625 20.71875 30.859375 
Q 16.703125 27.09375 16.703125 20.515625 
Q 16.703125 13.921875 20.71875 10.15625 
Q 24.75 6.390625 31.78125 6.390625 
Q 38.8125 6.390625 42.859375 10.171875 
Q 46.921875 13.96875 46.921875 20.515625 
Q 46.921875 27.09375 42.890625 30.859375 
Q 38.875 34.625 31.78125 34.625 
z
M 21.921875 38.8125 
Q 15.578125 40.375 12.03125 44.71875 
Q 8.5 49.078125 8.5 55.328125 
Q 8.5 64.0625 14.71875 69.140625 
Q 20.953125 74.21875 31.78125 74.21875 
Q 42.671875 74.21875 48.875 69.140625 
Q 55.078125 64.0625 55.078125 55.328125 
Q 55.078125 49.078125 51.53125 44.71875 
Q 48 40.375 41.703125 38.8125 
Q 48.828125 37.15625 52.796875 32.3125 
Q 56.78125 27.484375 56.78125 20.515625 
Q 56.78125 9.90625 50.3125 4.234375 
Q 43.84375 -1.421875 31.78125 -1.421875 
Q 19.734375 -1.421875 13.25 4.234375 
Q 6.78125 9.90625 6.78125 20.515625 
Q 6.78125 27.484375 10.78125 32.3125 
Q 14.796875 37.15625 21.921875 38.8125 
z
M 18.3125 54.390625 
Q 18.3125 48.734375 21.84375 45.5625 
Q 25.390625 42.390625 31.78125 42.390625 
Q 38.140625 42.390625 41.71875 45.5625 
Q 45.3125 48.734375 45.3125 54.390625 
Q 45.3125 60.0625 41.71875 63.234375 
Q 38.140625 66.40625 31.78125 66.40625 
Q 25.390625 66.40625 21.84375 63.234375 
Q 18.3125 60.0625 18.3125 54.390625 
z
" id="DejaVuSans-56"/>
       </defs>
       <use xlink:href="#DejaVuSans-56"/>
       <use x="63.623047" xlink:href="#DejaVuSans-48"/>
       <use x="127.246094" xlink:href="#DejaVuSans-48"/>
      </g>
     </g>
    </g>
    <g id="ytick_2">
     <g id="line2d_17">
      <g>
       <use style="stroke:#000000;stroke-width:0.8;" x="57.6" xlink:href="#mb57533e559" y="243.064706"/>
      </g>
     </g>
     <g id="text_5">
      <!-- 850 -->
      <g transform="translate(31.5125 246.863925)scale(0.1 -0.1)">
       <defs>
        <path d="M 10.796875 72.90625 
L 49.515625 72.90625 
L 49.515625 64.59375 
L 19.828125 64.59375 
L 19.828125 46.734375 
Q 21.96875 47.46875 24.109375 47.828125 
Q 26.265625 48.1875 28.421875 48.1875 
Q 40.625 48.1875 47.75 41.5 
Q 54.890625 34.8125 54.890625 23.390625 
Q 54.890625 11.625 47.5625 5.09375 
Q 40.234375 -1.421875 26.90625 -1.421875 
Q 22.3125 -1.421875 17.546875 -0.640625 
Q 12.796875 0.140625 7.71875 1.703125 
L 7.71875 11.625 
Q 12.109375 9.234375 16.796875 8.0625 
Q 21.484375 6.890625 26.703125 6.890625 
Q 35.15625 6.890625 40.078125 11.328125 
Q 45.015625 15.765625 45.015625 23.390625 
Q 45.015625 31 40.078125 35.4375 
Q 35.15625 39.890625 26.703125 39.890625 
Q 22.75 39.890625 18.8125 39.015625 
Q 14.890625 38.140625 10.796875 36.28125 
z
" id="DejaVuSans-53"/>
       </defs>
       <use xlink:href="#DejaVuSans-56"/>
       <use x="63.623047" xlink:href="#DejaVuSans-53"/>
       <use x="127.246094" xlink:href="#DejaVuSans-48"/>
      </g>
     </g>
    </g>
    <g id="ytick_3">
     <g id="line2d_18">
      <g>
       <use style="stroke:#000000;stroke-width:0.8;" x="57.6" xlink:href="#mb57533e559" y="201.931394"/>
      </g>
     </g>
     <g id="text_6">
      <!-- 900 -->
      <g transform="translate(31.5125 205.730613)scale(0.1 -0.1)">
       <defs>
        <path d="M 10.984375 1.515625 
L 10.984375 10.5 
Q 14.703125 8.734375 18.5 7.8125 
Q 22.3125 6.890625 25.984375 6.890625 
Q 35.75 6.890625 40.890625 13.453125 
Q 46.046875 20.015625 46.78125 33.40625 
Q 43.953125 29.203125 39.59375 26.953125 
Q 35.25 24.703125 29.984375 24.703125 
Q 19.046875 24.703125 12.671875 31.3125 
Q 6.296875 37.9375 6.296875 49.421875 
Q 6.296875 60.640625 12.9375 67.421875 
Q 19.578125 74.21875 30.609375 74.21875 
Q 43.265625 74.21875 49.921875 64.515625 
Q 56.59375 54.828125 56.59375 36.375 
Q 56.59375 19.140625 48.40625 8.859375 
Q 40.234375 -1.421875 26.421875 -1.421875 
Q 22.703125 -1.421875 18.890625 -0.6875 
Q 15.09375 0.046875 10.984375 1.515625 
z
M 30.609375 32.421875 
Q 37.25 32.421875 41.125 36.953125 
Q 45.015625 41.5 45.015625 49.421875 
Q 45.015625 57.28125 41.125 61.84375 
Q 37.25 66.40625 30.609375 66.40625 
Q 23.96875 66.40625 20.09375 61.84375 
Q 16.21875 57.28125 16.21875 49.421875 
Q 16.21875 41.5 20.09375 36.953125 
Q 23.96875 32.421875 30.609375 32.421875 
z
" id="DejaVuSans-57"/>
       </defs>
       <use xlink:href="#DejaVuSans-57"/>
       <use x="63.623047" xlink:href="#DejaVuSans-48"/>
       <use x="127.246094" xlink:href="#DejaVuSans-48"/>
      </g>
     </g>
    </g>
    <g id="ytick_4">
     <g id="line2d_19">
      <g>
       <use style="stroke:#000000;stroke-width:0.8;" x="57.6" xlink:href="#mb57533e559" y="160.798082"/>
      </g>
     </g>
     <g id="text_7">
      <!-- 950 -->
      <g transform="translate(31.5125 164.597301)scale(0.1 -0.1)">
       <use xlink:href="#DejaVuSans-57"/>
       <use x="63.623047" xlink:href="#DejaVuSans-53"/>
       <use x="127.246094" xlink:href="#DejaVuSans-48"/>
      </g>
     </g>
    </g>
    <g id="ytick_5">
     <g id="line2d_20">
      <g>
       <use style="stroke:#000000;stroke-width:0.8;" x="57.6" xlink:href="#mb57533e559" y="119.66477"/>
      </g>
     </g>
     <g id="text_8">
      <!-- 1000 -->
      <g transform="translate(25.15 123.463989)scale(0.1 -0.1)">
       <use xlink:href="#DejaVuSans-49"/>
       <use x="63.623047" xlink:href="#DejaVuSans-48"/>
       <use x="127.246094" xlink:href="#DejaVuSans-48"/>
       <use x="190.869141" xlink:href="#DejaVuSans-48"/>
      </g>
     </g>
    </g>
    <g id="ytick_6">
     <g id="line2d_21">
      <g>
       <use style="stroke:#000000;stroke-width:0.8;" x="57.6" xlink:href="#mb57533e559" y="78.531458"/>
      </g>
     </g>
     <g id="text_9">
      <!-- 1050 -->
      <g transform="translate(25.15 82.330677)scale(0.1 -0.1)">
       <use xlink:href="#DejaVuSans-49"/>
       <use x="63.623047" xlink:href="#DejaVuSans-48"/>
       <use x="127.246094" xlink:href="#DejaVuSans-53"/>
       <use x="190.869141" xlink:href="#DejaVuSans-48"/>
      </g>
     </g>
    </g>
    <g id="text_10">
     <!-- Memory (MB) -->
     <g transform="translate(19.070312 208.098312)rotate(-90)scale(0.1 -0.1)">
      <defs>
       <path d="M 9.8125 72.90625 
L 24.515625 72.90625 
L 43.109375 23.296875 
L 61.8125 72.90625 
L 76.515625 72.90625 
L 76.515625 0 
L 66.890625 0 
L 66.890625 64.015625 
L 48.09375 14.015625 
L 38.1875 14.015625 
L 19.390625 64.015625 
L 19.390625 0 
L 9.8125 0 
z
" id="DejaVuSans-77"/>
       <path d="M 41.109375 46.296875 
Q 39.59375 47.171875 37.8125 47.578125 
Q 36.03125 48 33.890625 48 
Q 26.265625 48 22.1875 43.046875 
Q 18.109375 38.09375 18.109375 28.8125 
L 18.109375 0 
L 9.078125 0 
L 9.078125 54.6875 
L 18.109375 54.6875 
L 18.109375 46.1875 
Q 20.953125 51.171875 25.484375 53.578125 
Q 30.03125 56 36.53125 56 
Q 37.453125 56 38.578125 55.875 
Q 39.703125 55.765625 41.0625 55.515625 
z
" id="DejaVuSans-114"/>
       <path d="M 32.171875 -5.078125 
Q 28.375 -14.84375 24.75 -17.8125 
Q 21.140625 -20.796875 15.09375 -20.796875 
L 7.90625 -20.796875 
L 7.90625 -13.28125 
L 13.1875 -13.28125 
Q 16.890625 -13.28125 18.9375 -11.515625 
Q 21 -9.765625 23.484375 -3.21875 
L 25.09375 0.875 
L 2.984375 54.6875 
L 12.5 54.6875 
L 29.59375 11.921875 
L 46.6875 54.6875 
L 56.203125 54.6875 
z
" id="DejaVuSans-121"/>
       <path d="M 19.671875 34.8125 
L 19.671875 8.109375 
L 35.5 8.109375 
Q 43.453125 8.109375 47.28125 11.40625 
Q 51.125 14.703125 51.125 21.484375 
Q 51.125 28.328125 47.28125 31.5625 
Q 43.453125 34.8125 35.5 34.8125 
z
M 19.671875 64.796875 
L 19.671875 42.828125 
L 34.28125 42.828125 
Q 41.5 42.828125 45.03125 45.53125 
Q 48.578125 48.25 48.578125 53.8125 
Q 48.578125 59.328125 45.03125 62.0625 
Q 41.5 64.796875 34.28125 64.796875 
z
M 9.8125 72.90625 
L 35.015625 72.90625 
Q 46.296875 72.90625 52.390625 68.21875 
Q 58.5 63.53125 58.5 54.890625 
Q 58.5 48.1875 55.375 44.234375 
Q 52.25 40.28125 46.1875 39.3125 
Q 53.46875 37.75 57.5 32.78125 
Q 61.53125 27.828125 61.53125 20.40625 
Q 61.53125 10.640625 54.890625 5.3125 
Q 48.25 0 35.984375 0 
L 9.8125 0 
z
" id="DejaVuSans-66"/>
      </defs>
      <use xlink:href="#DejaVuSans-77"/>
      <use x="86.279297" xlink:href="#DejaVuSans-101"/>
      <use x="147.802734" xlink:href="#DejaVuSans-109"/>
      <use x="245.214844" xlink:href="#DejaVuSans-111"/>
      <use x="306.396484" xlink:href="#DejaVuSans-114"/>
      <use x="347.509766" xlink:href="#DejaVuSans-121"/>
      <use x="406.689453" xlink:href="#DejaVuSans-32"/>
      <use x="438.476562" xlink:href="#DejaVuSans-40"/>
      <use x="477.490234" xlink:href="#DejaVuSans-77"/>
      <use x="563.769531" xlink:href="#DejaVuSans-66"/>
      <use x="632.373047" xlink:href="#DejaVuSans-41"/>
     </g>
    </g>
   </g>
   <g id="line2d_22">
    <path clip-path="url(#p3ec24ddef6)" d="M 73.832727 295.488 
L 84.729214 290.443648 
L 90.935318 284.674822 
L 96.835301 277.436834 
L 101.993104 269.444045 
L 107.058184 259.928179 
L 111.912119 250.35503 
L 116.588128 238.507372 
L 121.068333 229.288035 
L 125.778151 218.643339 
L 130.053407 207.048404 
L 134.9018 202.897007 
L 139.299322 202.587 
L 143.146689 202.405039 
L 147.667151 202.239927 
L 151.266121 202.078184 
L 155.052779 202.074814 
L 157.656052 201.980465 
L 161.302195 201.768177 
L 164.566785 201.656979 
L 167.839644 201.316645 
L 171.289322 197.32699 
L 174.895823 186.584575 
L 178.528059 173.389061 
L 184.379247 156.257807 
L 191.427187 162.542187 
L 198.211448 161.962609 
L 202.822736 149.720704 
L 208.871121 122.322153 
L 217.457901 111.768438 
L 220.916109 123.85197 
L 223.268744 123.723924 
L 226.68178 123.093801 
L 229.708842 122.241282 
L 234.428762 111.337124 
L 239.472769 106.464623 
L 244.258875 105.733411 
L 250.694462 137.434993 
L 256.395953 129.48264 
L 259.072143 129.442205 
L 262.241398 132.01998 
L 268.343047 130.075697 
L 271.058468 130.018413 
L 273.44412 129.833083 
L 276.158525 129.806126 
L 278.696713 131.002348 
L 283.409899 129.041217 
L 285.713679 129.024369 
L 288.566 131.780735 
L 290.853853 125.91419 
L 294.300242 128.232503 
L 298.867021 125.199827 
L 300.956688 125.388527 
L 302.73747 125.287437 
L 305.411796 127.656295 
L 307.958116 130.271136 
L 310.555406 126.820624 
L 312.725395 120.741792 
L 314.999127 123.154455 
L 317.877455 106.77126 
L 320.16443 127.693361 
L 322.189581 117.237365 
L 324.548924 125.951257 
L 326.119548 113.294885 
L 328.106219 113.220753 
L 330.244945 121.638116 
L 332.270346 127.029542 
L 335.420934 110.241991 
L 337.443689 118.403261 
L 339.353268 113.658806 
L 341.261461 108.789675 
L 343.119401 97.558662 
L 344.98565 110.24873 
L 346.710802 107.323882 
L 348.381129 106.997026 
L 349.922607 107.189096 
L 351.615436 107.172248 
L 353.606589 117.436174 
L 356.450095 98.539228 
L 358.378867 106.222009 
L 360.109277 100.183612 
L 361.827267 89.78827 
L 363.526649 99.091849 
L 365.178375 93.700423 
L 366.382746 80.737415 
L 368.151138 88.423566 
L 369.656182 82.816483 
L 371.212836 72.360487 
L 372.751714 94.960669 
L 374.230348 91.988646 
L 377.584378 73.08496 
L 379.064366 66.864603 
L 380.436984 55.566197 
L 381.79693 85.235885 
L 383.154575 80.275774 
L 384.50934 73.806063 
L 385.830256 67.55201 
L 387.732684 82.00103 
L 388.248764 75.962634 
L 388.736641 69.749016 
L 389.229203 63.023212 
L 389.706747 59.141386 
L 390.224694 70.786865 
L 390.698066 67.336353 
L 391.195549 63.670183 
L 391.659585 60.435328 
L 392.161351 56.769159 
L 392.655622 53.568 
L 393.117471 84.373257 
L 393.669769 80.491431 
L 394.117888 78.119204 
L 394.579543 73.374749 
L 395.041077 70.139894 
L 395.480629 66.689382 
L 395.920406 63.454526 
L 396.362532 86.31417 
L 396.790923 82.00103 
L 397.232493 77.040919 
L 397.642851 73.758888 
L 398.067753 69.277266 
L 398.487273 64.748469 
" style="fill:none;stroke:#000000;stroke-linecap:square;stroke-width:1.5;"/>
    <defs>
     <path d="M 0 3 
C 0.795609 3 1.55874 2.683901 2.12132 2.12132 
C 2.683901 1.55874 3 0.795609 3 0 
C 3 -0.795609 2.683901 -1.55874 2.12132 -2.12132 
C 1.55874 -2.683901 0.795609 -3 0 -3 
C -0.795609 -3 -1.55874 -2.683901 -2.12132 -2.12132 
C -2.683901 -1.55874 -3 -0.795609 -3 0 
C -3 0.795609 -2.683901 1.55874 -2.12132 2.12132 
C -1.55874 2.683901 -0.795609 3 0 3 
z
" id="m6c57411f51" style="stroke:#000000;"/>
    </defs>
    <g clip-path="url(#p3ec24ddef6)">
     <use style="stroke:#000000;" x="73.832727" xlink:href="#m6c57411f51" y="295.488"/>
     <use style="stroke:#000000;" x="84.729214" xlink:href="#m6c57411f51" y="290.443648"/>
     <use style="stroke:#000000;" x="90.935318" xlink:href="#m6c57411f51" y="284.674822"/>
     <use style="stroke:#000000;" x="96.835301" xlink:href="#m6c57411f51" y="277.436834"/>
     <use style="stroke:#000000;" x="101.993104" xlink:href="#m6c57411f51" y="269.444045"/>
     <use style="stroke:#000000;" x="107.058184" xlink:href="#m6c57411f51" y="259.928179"/>
     <use style="stroke:#000000;" x="111.912119" xlink:href="#m6c57411f51" y="250.35503"/>
     <use style="stroke:#000000;" x="116.588128" xlink:href="#m6c57411f51" y="238.507372"/>
     <use style="stroke:#000000;" x="121.068333" xlink:href="#m6c57411f51" y="229.288035"/>
     <use style="stroke:#000000;" x="125.778151" xlink:href="#m6c57411f51" y="218.643339"/>
     <use style="stroke:#000000;" x="130.053407" xlink:href="#m6c57411f51" y="207.048404"/>
     <use style="stroke:#000000;" x="134.9018" xlink:href="#m6c57411f51" y="202.897007"/>
     <use style="stroke:#000000;" x="139.299322" xlink:href="#m6c57411f51" y="202.587"/>
     <use style="stroke:#000000;" x="143.146689" xlink:href="#m6c57411f51" y="202.405039"/>
     <use style="stroke:#000000;" x="147.667151" xlink:href="#m6c57411f51" y="202.239927"/>
     <use style="stroke:#000000;" x="151.266121" xlink:href="#m6c57411f51" y="202.078184"/>
     <use style="stroke:#000000;" x="155.052779" xlink:href="#m6c57411f51" y="202.074814"/>
     <use style="stroke:#000000;" x="157.656052" xlink:href="#m6c57411f51" y="201.980465"/>
     <use style="stroke:#000000;" x="161.302195" xlink:href="#m6c57411f51" y="201.768177"/>
     <use style="stroke:#000000;" x="164.566785" xlink:href="#m6c57411f51" y="201.656979"/>
     <use style="stroke:#000000;" x="167.839644" xlink:href="#m6c57411f51" y="201.316645"/>
     <use style="stroke:#000000;" x="171.289322" xlink:href="#m6c57411f51" y="197.32699"/>
     <use style="stroke:#000000;" x="174.895823" xlink:href="#m6c57411f51" y="186.584575"/>
     <use style="stroke:#000000;" x="178.528059" xlink:href="#m6c57411f51" y="173.389061"/>
     <use style="stroke:#000000;" x="184.379247" xlink:href="#m6c57411f51" y="156.257807"/>
     <use style="stroke:#000000;" x="191.427187" xlink:href="#m6c57411f51" y="162.542187"/>
     <use style="stroke:#000000;" x="198.211448" xlink:href="#m6c57411f51" y="161.962609"/>
     <use style="stroke:#000000;" x="202.822736" xlink:href="#m6c57411f51" y="149.720704"/>
     <use style="stroke:#000000;" x="208.871121" xlink:href="#m6c57411f51" y="122.322153"/>
     <use style="stroke:#000000;" x="217.457901" xlink:href="#m6c57411f51" y="111.768438"/>
     <use style="stroke:#000000;" x="220.916109" xlink:href="#m6c57411f51" y="123.85197"/>
     <use style="stroke:#000000;" x="223.268744" xlink:href="#m6c57411f51" y="123.723924"/>
     <use style="stroke:#000000;" x="226.68178" xlink:href="#m6c57411f51" y="123.093801"/>
     <use style="stroke:#000000;" x="229.708842" xlink:href="#m6c57411f51" y="122.241282"/>
     <use style="stroke:#000000;" x="234.428762" xlink:href="#m6c57411f51" y="111.337124"/>
     <use style="stroke:#000000;" x="239.472769" xlink:href="#m6c57411f51" y="106.464623"/>
     <use style="stroke:#000000;" x="244.258875" xlink:href="#m6c57411f51" y="105.733411"/>
     <use style="stroke:#000000;" x="250.694462" xlink:href="#m6c57411f51" y="137.434993"/>
     <use style="stroke:#000000;" x="256.395953" xlink:href="#m6c57411f51" y="129.48264"/>
     <use style="stroke:#000000;" x="259.072143" xlink:href="#m6c57411f51" y="129.442205"/>
     <use style="stroke:#000000;" x="262.241398" xlink:href="#m6c57411f51" y="132.01998"/>
     <use style="stroke:#000000;" x="268.343047" xlink:href="#m6c57411f51" y="130.075697"/>
     <use style="stroke:#000000;" x="271.058468" xlink:href="#m6c57411f51" y="130.018413"/>
     <use style="stroke:#000000;" x="273.44412" xlink:href="#m6c57411f51" y="129.833083"/>
     <use style="stroke:#000000;" x="276.158525" xlink:href="#m6c57411f51" y="129.806126"/>
     <use style="stroke:#000000;" x="278.696713" xlink:href="#m6c57411f51" y="131.002348"/>
     <use style="stroke:#000000;" x="283.409899" xlink:href="#m6c57411f51" y="129.041217"/>
     <use style="stroke:#000000;" x="285.713679" xlink:href="#m6c57411f51" y="129.024369"/>
     <use style="stroke:#000000;" x="288.566" xlink:href="#m6c57411f51" y="131.780735"/>
     <use style="stroke:#000000;" x="290.853853" xlink:href="#m6c57411f51" y="125.91419"/>
     <use style="stroke:#000000;" x="294.300242" xlink:href="#m6c57411f51" y="128.232503"/>
     <use style="stroke:#000000;" x="298.867021" xlink:href="#m6c57411f51" y="125.199827"/>
     <use style="stroke:#000000;" x="300.956688" xlink:href="#m6c57411f51" y="125.388527"/>
     <use style="stroke:#000000;" x="302.73747" xlink:href="#m6c57411f51" y="125.287437"/>
     <use style="stroke:#000000;" x="305.411796" xlink:href="#m6c57411f51" y="127.656295"/>
     <use style="stroke:#000000;" x="307.958116" xlink:href="#m6c57411f51" y="130.271136"/>
     <use style="stroke:#000000;" x="310.555406" xlink:href="#m6c57411f51" y="126.820624"/>
     <use style="stroke:#000000;" x="312.725395" xlink:href="#m6c57411f51" y="120.741792"/>
     <use style="stroke:#000000;" x="314.999127" xlink:href="#m6c57411f51" y="123.154455"/>
     <use style="stroke:#000000;" x="317.877455" xlink:href="#m6c57411f51" y="106.77126"/>
     <use style="stroke:#000000;" x="320.16443" xlink:href="#m6c57411f51" y="127.693361"/>
     <use style="stroke:#000000;" x="322.189581" xlink:href="#m6c57411f51" y="117.237365"/>
     <use style="stroke:#000000;" x="324.548924" xlink:href="#m6c57411f51" y="125.951257"/>
     <use style="stroke:#000000;" x="326.119548" xlink:href="#m6c57411f51" y="113.294885"/>
     <use style="stroke:#000000;" x="328.106219" xlink:href="#m6c57411f51" y="113.220753"/>
     <use style="stroke:#000000;" x="330.244945" xlink:href="#m6c57411f51" y="121.638116"/>
     <use style="stroke:#000000;" x="332.270346" xlink:href="#m6c57411f51" y="127.029542"/>
     <use style="stroke:#000000;" x="335.420934" xlink:href="#m6c57411f51" y="110.241991"/>
     <use style="stroke:#000000;" x="337.443689" xlink:href="#m6c57411f51" y="118.403261"/>
     <use style="stroke:#000000;" x="339.353268" xlink:href="#m6c57411f51" y="113.658806"/>
     <use style="stroke:#000000;" x="341.261461" xlink:href="#m6c57411f51" y="108.789675"/>
     <use style="stroke:#000000;" x="343.119401" xlink:href="#m6c57411f51" y="97.558662"/>
     <use style="stroke:#000000;" x="344.98565" xlink:href="#m6c57411f51" y="110.24873"/>
     <use style="stroke:#000000;" x="346.710802" xlink:href="#m6c57411f51" y="107.323882"/>
     <use style="stroke:#000000;" x="348.381129" xlink:href="#m6c57411f51" y="106.997026"/>
     <use style="stroke:#000000;" x="349.922607" xlink:href="#m6c57411f51" y="107.189096"/>
     <use style="stroke:#000000;" x="351.615436" xlink:href="#m6c57411f51" y="107.172248"/>
     <use style="stroke:#000000;" x="353.606589" xlink:href="#m6c57411f51" y="117.436174"/>
     <use style="stroke:#000000;" x="356.450095" xlink:href="#m6c57411f51" y="98.539228"/>
     <use style="stroke:#000000;" x="358.378867" xlink:href="#m6c57411f51" y="106.222009"/>
     <use style="stroke:#000000;" x="360.109277" xlink:href="#m6c57411f51" y="100.183612"/>
     <use style="stroke:#000000;" x="361.827267" xlink:href="#m6c57411f51" y="89.78827"/>
     <use style="stroke:#000000;" x="363.526649" xlink:href="#m6c57411f51" y="99.091849"/>
     <use style="stroke:#000000;" x="365.178375" xlink:href="#m6c57411f51" y="93.700423"/>
     <use style="stroke:#000000;" x="366.382746" xlink:href="#m6c57411f51" y="80.737415"/>
     <use style="stroke:#000000;" x="368.151138" xlink:href="#m6c57411f51" y="88.423566"/>
     <use style="stroke:#000000;" x="369.656182" xlink:href="#m6c57411f51" y="82.816483"/>
     <use style="stroke:#000000;" x="371.212836" xlink:href="#m6c57411f51" y="72.360487"/>
     <use style="stroke:#000000;" x="372.751714" xlink:href="#m6c57411f51" y="94.960669"/>
     <use style="stroke:#000000;" x="374.230348" xlink:href="#m6c57411f51" y="91.988646"/>
     <use style="stroke:#000000;" x="377.584378" xlink:href="#m6c57411f51" y="73.08496"/>
     <use style="stroke:#000000;" x="379.064366" xlink:href="#m6c57411f51" y="66.864603"/>
     <use style="stroke:#000000;" x="380.436984" xlink:href="#m6c57411f51" y="55.566197"/>
     <use style="stroke:#000000;" x="381.79693" xlink:href="#m6c57411f51" y="85.235885"/>
     <use style="stroke:#000000;" x="383.154575" xlink:href="#m6c57411f51" y="80.275774"/>
     <use style="stroke:#000000;" x="384.50934" xlink:href="#m6c57411f51" y="73.806063"/>
     <use style="stroke:#000000;" x="385.830256" xlink:href="#m6c57411f51" y="67.55201"/>
     <use style="stroke:#000000;" x="387.732684" xlink:href="#m6c57411f51" y="82.00103"/>
     <use style="stroke:#000000;" x="388.248764" xlink:href="#m6c57411f51" y="75.962634"/>
     <use style="stroke:#000000;" x="388.736641" xlink:href="#m6c57411f51" y="69.749016"/>
     <use style="stroke:#000000;" x="389.229203" xlink:href="#m6c57411f51" y="63.023212"/>
     <use style="stroke:#000000;" x="389.706747" xlink:href="#m6c57411f51" y="59.141386"/>
     <use style="stroke:#000000;" x="390.224694" xlink:href="#m6c57411f51" y="70.786865"/>
     <use style="stroke:#000000;" x="390.698066" xlink:href="#m6c57411f51" y="67.336353"/>
     <use style="stroke:#000000;" x="391.195549" xlink:href="#m6c57411f51" y="63.670183"/>
     <use style="stroke:#000000;" x="391.659585" xlink:href="#m6c57411f51" y="60.435328"/>
     <use style="stroke:#000000;" x="392.161351" xlink:href="#m6c57411f51" y="56.769159"/>
     <use style="stroke:#000000;" x="392.655622" xlink:href="#m6c57411f51" y="53.568"/>
     <use style="stroke:#000000;" x="393.117471" xlink:href="#m6c57411f51" y="84.373257"/>
     <use style="stroke:#000000;" x="393.669769" xlink:href="#m6c57411f51" y="80.491431"/>
     <use style="stroke:#000000;" x="394.117888" xlink:href="#m6c57411f51" y="78.119204"/>
     <use style="stroke:#000000;" x="394.579543" xlink:href="#m6c57411f51" y="73.374749"/>
     <use style="stroke:#000000;" x="395.041077" xlink:href="#m6c57411f51" y="70.139894"/>
     <use style="stroke:#000000;" x="395.480629" xlink:href="#m6c57411f51" y="66.689382"/>
     <use style="stroke:#000000;" x="395.920406" xlink:href="#m6c57411f51" y="63.454526"/>
     <use style="stroke:#000000;" x="396.362532" xlink:href="#m6c57411f51" y="86.31417"/>
     <use style="stroke:#000000;" x="396.790923" xlink:href="#m6c57411f51" y="82.00103"/>
     <use style="stroke:#000000;" x="397.232493" xlink:href="#m6c57411f51" y="77.040919"/>
     <use style="stroke:#000000;" x="397.642851" xlink:href="#m6c57411f51" y="73.758888"/>
     <use style="stroke:#000000;" x="398.067753" xlink:href="#m6c57411f51" y="69.277266"/>
     <use style="stroke:#000000;" x="398.487273" xlink:href="#m6c57411f51" y="64.748469"/>
    </g>
   </g>
   <g id="patch_3">
    <path d="M 57.6 307.584 
L 57.6 41.472 
" style="fill:none;stroke:#000000;stroke-linecap:square;stroke-linejoin:miter;stroke-width:0.8;"/>
   </g>
   <g id="patch_4">
    <path d="M 414.72 307.584 
L 414.72 41.472 
" style="fill:none;stroke:#000000;stroke-linecap:square;stroke-linejoin:miter;stroke-width:0.8;"/>
   </g>
   <g id="patch_5">
    <path d="M 57.6 307.584 
L 414.72 307.584 
" style="fill:none;stroke:#000000;stroke-linecap:square;stroke-linejoin:miter;stroke-width:0.8;"/>
   </g>
   <g id="patch_6">
    <path d="M 57.6 41.472 
L 414.72 41.472 
" style="fill:none;stroke:#000000;stroke-linecap:square;stroke-linejoin:miter;stroke-width:0.8;"/>
   </g>
   <g id="legend_1">
    <g id="patch_7">
     <path d="M 64.6 64.150125 
L 118.617188 64.150125 
Q 120.617188 64.150125 120.617188 62.150125 
L 120.617188 48.472 
Q 120.617188 46.472 118.617188 46.472 
L 64.6 46.472 
Q 62.6 46.472 62.6 48.472 
L 62.6 62.150125 
Q 62.6 64.150125 64.6 64.150125 
z
" style="fill:#ffffff;opacity:0.8;stroke:#cccccc;stroke-linejoin:miter;"/>
    </g>
    <g id="line2d_23">
     <path d="M 66.6 54.570438 
L 86.6 54.570438 
" style="fill:none;stroke:#000000;stroke-linecap:square;stroke-width:1.5;"/>
    </g>
    <g id="line2d_24">
     <g>
      <use style="stroke:#000000;" x="76.6" xlink:href="#m6c57411f51" y="54.570438"/>
     </g>
    </g>
    <g id="text_11">
     <!-- RAM -->
     <g transform="translate(94.6 58.070438)scale(0.1 -0.1)">
      <defs>
       <path d="M 44.390625 34.1875 
Q 47.5625 33.109375 50.5625 29.59375 
Q 53.5625 26.078125 56.59375 19.921875 
L 66.609375 0 
L 56 0 
L 46.6875 18.703125 
Q 43.0625 26.03125 39.671875 28.421875 
Q 36.28125 30.8125 30.421875 30.8125 
L 19.671875 30.8125 
L 19.671875 0 
L 9.8125 0 
L 9.8125 72.90625 
L 32.078125 72.90625 
Q 44.578125 72.90625 50.734375 67.671875 
Q 56.890625 62.453125 56.890625 51.90625 
Q 56.890625 45.015625 53.6875 40.46875 
Q 50.484375 35.9375 44.390625 34.1875 
z
M 19.671875 64.796875 
L 19.671875 38.921875 
L 32.078125 38.921875 
Q 39.203125 38.921875 42.84375 42.21875 
Q 46.484375 45.515625 46.484375 51.90625 
Q 46.484375 58.296875 42.84375 61.546875 
Q 39.203125 64.796875 32.078125 64.796875 
z
" id="DejaVuSans-82"/>
       <path d="M 34.1875 63.1875 
L 20.796875 26.90625 
L 47.609375 26.90625 
z
M 28.609375 72.90625 
L 39.796875 72.90625 
L 67.578125 0 
L 57.328125 0 
L 50.6875 18.703125 
L 17.828125 18.703125 
L 11.1875 0 
L 0.78125 0 
z
" id="DejaVuSans-65"/>
      </defs>
      <use xlink:href="#DejaVuSans-82"/>
      <use x="65.482422" xlink:href="#DejaVuSans-65"/>
      <use x="133.890625" xlink:href="#DejaVuSans-77"/>
     </g>
    </g>
   </g>
  </g>
 </g>
 <defs>
  <clipPath id="p3ec24ddef6">
   <rect height="266.112" width="357.12" x="57.6" y="41.472"/>
  </clipPath>
 </defs>
</svg>
